<svg width="25" height="31" viewBox="0 0 25 31" fill="none" xmlns="http://www.w3.org/2000/svg">
<path d="M21.2505 21.8755L12.5 30.6259L3.74955 21.8755C-1.08318 17.0427 -1.08318 9.20729 3.74955 4.37455C8.58229 -0.458185 16.4177 -0.458185 21.2505 4.37455C26.0832 9.20729 26.0832 17.0427 21.2505 21.8755ZM12.5 18.625C15.5375 18.625 18 16.1625 18 13.125C18 10.0874 15.5375 7.625 12.5 7.625C9.46243 7.625 7 10.0874 7 13.125C7 16.1625 9.46243 18.625 12.5 18.625ZM12.5 15.875C10.9812 15.875 9.75 14.6438 9.75 13.125C9.75 11.6062 10.9812 10.375 12.5 10.375C14.0188 10.375 15.25 11.6062 15.25 13.125C15.25 14.6438 14.0188 15.875 12.5 15.875Z" fill="white"/>
</svg>
