<svg width="843" height="825" viewBox="0 0 843 825" fill="none" xmlns="http://www.w3.org/2000/svg">
<path d="M694.683 263.858L681.374 276.915L668.065 263.858C660.715 256.646 660.715 244.953 668.065 237.742C675.415 230.53 687.333 230.53 694.683 237.742C702.034 244.953 702.034 256.646 694.683 263.858ZM681.374 259.007C685.994 259.007 689.739 255.332 689.739 250.8C689.739 246.267 685.994 242.592 681.374 242.592C676.754 242.592 673.009 246.267 673.009 250.8C673.009 255.332 676.754 259.007 681.374 259.007ZM681.374 254.903C679.064 254.903 677.191 253.066 677.191 250.8C677.191 248.533 679.064 246.696 681.374 246.696C683.684 246.696 685.557 248.533 685.557 250.8C685.557 253.066 683.684 254.903 681.374 254.903Z" fill="#0005B2"/>
<path d="M152.269 484.249L139.211 497.558L126.153 484.249C118.941 476.899 118.941 464.981 126.153 457.631C133.365 450.281 145.057 450.281 152.269 457.631C159.48 464.981 159.48 476.899 152.269 484.249ZM139.211 479.305C143.744 479.305 147.418 475.56 147.418 470.94C147.418 466.32 143.744 462.575 139.211 462.575C134.678 462.575 131.003 466.32 131.003 470.94C131.003 475.56 134.678 479.305 139.211 479.305ZM139.211 475.123C136.944 475.123 135.107 473.25 135.107 470.94C135.107 468.63 136.944 466.757 139.211 466.757C141.477 466.757 143.315 468.63 143.315 470.94C143.315 473.25 141.477 475.123 139.211 475.123Z" fill="#0005B2"/>
<mask id="mask0_506_53" style="mask-type:luminance" maskUnits="userSpaceOnUse" x="366" y="140" width="27" height="26">
<path d="M392.062 140.157H366.493V165.727H392.062V140.157Z" fill="white"/>
</mask>
<g mask="url(#mask0_506_53)">
<path d="M386.058 158.657L379.278 165.437L372.498 158.657C368.753 154.912 368.753 148.841 372.498 145.097C376.242 141.352 382.313 141.352 386.058 145.097C389.803 148.841 389.803 154.912 386.058 158.657ZM379.278 156.138C381.631 156.138 383.539 154.23 383.539 151.877C383.539 149.523 381.631 147.615 379.278 147.615C376.924 147.615 375.016 149.523 375.016 151.877C375.016 154.23 376.924 156.138 379.278 156.138ZM379.278 154.008C378.101 154.008 377.147 153.054 377.147 151.877C377.147 150.7 378.101 149.746 379.278 149.746C380.455 149.746 381.409 150.7 381.409 151.877C381.409 153.054 380.455 154.008 379.278 154.008Z" fill="#0005B2"/>
</g>
<mask id="mask1_506_53" style="mask-type:luminance" maskUnits="userSpaceOnUse" x="404" y="132" width="23" height="23">
<path d="M426.155 132.581H404.374V154.362H426.155V132.581Z" fill="white"/>
</mask>
<g mask="url(#mask1_506_53)">
<path d="M421.04 148.34L415.264 154.116L409.489 148.34C406.299 145.15 406.299 139.979 409.489 136.789C412.678 133.599 417.85 133.599 421.04 136.789C424.23 139.979 424.23 145.15 421.04 148.34ZM415.264 146.195C417.269 146.195 418.894 144.569 418.894 142.564C418.894 140.56 417.269 138.934 415.264 138.934C413.259 138.934 411.634 140.56 411.634 142.564C411.634 144.569 413.259 146.195 415.264 146.195ZM415.264 144.38C414.262 144.38 413.449 143.567 413.449 142.564C413.449 141.562 414.262 140.749 415.264 140.749C416.267 140.749 417.079 141.562 417.079 142.564C417.079 143.567 416.267 144.38 415.264 144.38Z" fill="#0005B2"/>
</g>
<path d="M420.315 171.068L414.791 176.844L409.266 171.068C406.215 167.879 406.215 162.707 409.266 159.517C412.317 156.327 417.264 156.327 420.315 159.517C423.366 162.707 423.366 167.879 420.315 171.068ZM414.791 168.923C416.709 168.923 418.263 167.298 418.263 165.293C418.263 163.288 416.709 161.663 414.791 161.663C412.873 161.663 411.318 163.288 411.318 165.293C411.318 167.298 412.873 168.923 414.791 168.923ZM414.791 167.108C413.832 167.108 413.055 166.295 413.055 165.293C413.055 164.29 413.832 163.478 414.791 163.478C415.75 163.478 416.527 164.29 416.527 165.293C416.527 166.295 415.75 167.108 414.791 167.108Z" fill="#0005B2"/>
<mask id="mask2_506_53" style="mask-type:luminance" maskUnits="userSpaceOnUse" x="426" y="144" width="21" height="23">
<path d="M446.989 144.892H426.155V166.673H446.989V144.892Z" fill="white"/>
</mask>
<g mask="url(#mask2_506_53)">
<path d="M442.096 160.651L436.572 166.427L431.047 160.651C427.996 157.461 427.996 152.29 431.047 149.1C434.098 145.91 439.045 145.91 442.096 149.1C445.147 152.29 445.147 157.461 442.096 160.651ZM436.572 158.506C438.489 158.506 440.044 156.88 440.044 154.875C440.044 152.871 438.489 151.245 436.572 151.245C434.654 151.245 433.099 152.871 433.099 154.875C433.099 156.88 434.654 158.506 436.572 158.506ZM436.572 156.691C435.613 156.691 434.835 155.878 434.835 154.875C434.835 153.873 435.613 153.06 436.572 153.06C437.531 153.06 438.308 153.873 438.308 154.875C438.308 155.878 437.531 156.691 436.572 156.691Z" fill="#0005B2"/>
</g>
<path d="M462.93 151.181L457.406 156.957L451.881 151.181C448.83 147.991 448.83 142.82 451.881 139.63C454.932 136.44 459.879 136.44 462.93 139.63C465.981 142.82 465.981 147.991 462.93 151.181ZM457.406 149.036C459.323 149.036 460.878 147.41 460.878 145.406C460.878 143.401 459.323 141.775 457.406 141.775C455.488 141.775 453.933 143.401 453.933 145.406C453.933 147.41 455.488 149.036 457.406 149.036ZM457.406 147.221C456.447 147.221 455.669 146.408 455.669 145.406C455.669 144.403 456.447 143.59 457.406 143.59C458.364 143.59 459.142 144.403 459.142 145.406C459.142 146.408 458.364 147.221 457.406 147.221Z" fill="#0005B2"/>
<mask id="mask3_506_53" style="mask-type:luminance" maskUnits="userSpaceOnUse" x="389" y="177" width="24" height="24">
<path d="M412.896 177.091H389.221V200.766H412.896V177.091Z" fill="white"/>
</mask>
<g mask="url(#mask3_506_53)">
<path d="M407.337 194.22L401.059 200.498L394.781 194.22C391.314 190.753 391.314 185.131 394.781 181.664C398.248 178.197 403.87 178.197 407.337 181.664C410.804 185.131 410.804 190.753 407.337 194.22ZM401.059 191.888C403.238 191.888 405.005 190.121 405.005 187.942C405.005 185.763 403.238 183.996 401.059 183.996C398.88 183.996 397.113 185.763 397.113 187.942C397.113 190.121 398.88 191.888 401.059 191.888ZM401.059 189.915C399.969 189.915 399.086 189.032 399.086 187.942C399.086 186.852 399.969 185.969 401.059 185.969C402.149 185.969 403.032 186.852 403.032 187.942C403.032 189.032 402.149 189.915 401.059 189.915Z" fill="#0005B2"/>
</g>
<mask id="mask4_506_53" style="mask-type:luminance" maskUnits="userSpaceOnUse" x="429" y="167" width="25" height="25">
<path d="M453.618 167.621H429.943V191.296H453.618V167.621Z" fill="white"/>
</mask>
<g mask="url(#mask4_506_53)">
<path d="M448.058 184.75L441.781 191.027L435.503 184.75C432.036 181.282 432.036 175.661 435.503 172.194C438.97 168.727 444.591 168.727 448.058 172.194C451.526 175.661 451.526 181.282 448.058 184.75ZM441.781 182.418C443.96 182.418 445.726 180.651 445.726 178.472C445.726 176.292 443.96 174.526 441.781 174.526C439.601 174.526 437.835 176.292 437.835 178.472C437.835 180.651 439.601 182.418 441.781 182.418ZM441.781 180.445C440.691 180.445 439.808 179.561 439.808 178.472C439.808 177.382 440.691 176.499 441.781 176.499C442.87 176.499 443.753 177.382 443.753 178.472C443.753 179.561 442.87 180.445 441.781 180.445Z" fill="#0005B2"/>
</g>
<path d="M485.939 221.683L479.661 227.961L473.383 221.683C469.916 218.216 469.916 212.594 473.383 209.127C476.85 205.66 482.472 205.66 485.939 209.127C489.406 212.594 489.406 218.216 485.939 221.683ZM479.661 219.351C481.84 219.351 483.607 217.584 483.607 215.405C483.607 213.226 481.84 211.459 479.661 211.459C477.482 211.459 475.715 213.226 475.715 215.405C475.715 217.584 477.482 219.351 479.661 219.351ZM479.661 217.378C478.571 217.378 477.688 216.495 477.688 215.405C477.688 214.315 478.571 213.432 479.661 213.432C480.751 213.432 481.634 214.315 481.634 215.405C481.634 216.495 480.751 217.378 479.661 217.378Z" fill="#0005B2"/>
<mask id="mask5_506_53" style="mask-type:luminance" maskUnits="userSpaceOnUse" x="418" y="192" width="15" height="16">
<path d="M432.784 192.243H418.579V207.395H432.784V192.243Z" fill="white"/>
</mask>
<g mask="url(#mask5_506_53)">
<path d="M429.448 203.206L425.681 207.223L421.914 203.206C419.834 200.986 419.834 197.389 421.914 195.17C423.995 192.951 427.367 192.951 429.448 195.17C431.528 197.389 431.528 200.986 429.448 203.206ZM425.681 201.713C426.988 201.713 428.048 200.582 428.048 199.188C428.048 197.793 426.988 196.662 425.681 196.662C424.373 196.662 423.313 197.793 423.313 199.188C423.313 200.582 424.373 201.713 425.681 201.713ZM425.681 200.45C425.027 200.45 424.497 199.885 424.497 199.188C424.497 198.49 425.027 197.925 425.681 197.925C426.335 197.925 426.865 198.49 426.865 199.188C426.865 199.885 426.335 200.45 425.681 200.45Z" fill="#0005B2"/>
</g>
<path d="M187.58 455.856V469.764H206.58V477.972H187.58V492.412H208.86V501H176.864V447.344H208.86V455.856H187.58ZM232.298 458.364C237.719 458.364 242.228 459.833 245.826 462.772C249.474 465.711 251.754 469.713 252.666 474.78H241.342C240.886 472.551 239.847 470.803 238.226 469.536C236.604 468.219 234.552 467.56 232.07 467.56C229.232 467.56 226.851 468.624 224.926 470.752C223.051 472.829 222.114 475.895 222.114 479.948C222.114 484.001 223.051 487.092 224.926 489.22C226.851 491.297 229.232 492.336 232.07 492.336C234.552 492.336 236.604 491.703 238.226 490.436C239.847 489.119 240.886 487.345 241.342 485.116H252.666C251.754 490.183 249.474 494.185 245.826 497.124C242.228 500.063 237.719 501.532 232.298 501.532C228.194 501.532 224.546 500.671 221.354 498.948C218.162 497.175 215.679 494.667 213.906 491.424C212.132 488.181 211.246 484.356 211.246 479.948C211.246 475.54 212.132 471.715 213.906 468.472C215.679 465.179 218.162 462.671 221.354 460.948C224.546 459.225 228.194 458.364 232.298 458.364ZM297.14 458.896V501H286.424V492.488C285.309 495.325 283.46 497.555 280.876 499.176C278.343 500.747 275.404 501.532 272.06 501.532C267.196 501.532 263.32 499.936 260.432 496.744C257.544 493.552 256.1 489.093 256.1 483.368V458.896H266.74V482.152C266.74 485.496 267.601 488.105 269.324 489.98C271.047 491.804 273.377 492.716 276.316 492.716C279.407 492.716 281.864 491.728 283.688 489.752C285.512 487.776 286.424 484.939 286.424 481.24V458.896H297.14ZM319.955 458.364C323.502 458.364 326.542 459.2 329.075 460.872C331.609 462.544 333.407 464.799 334.471 467.636V458.896H345.111V501H334.471V492.184C333.407 495.021 331.609 497.301 329.075 499.024C326.542 500.696 323.502 501.532 319.955 501.532C316.409 501.532 313.217 500.671 310.379 498.948C307.542 497.225 305.313 494.743 303.691 491.5C302.121 488.207 301.335 484.356 301.335 479.948C301.335 475.54 302.121 471.715 303.691 468.472C305.313 465.179 307.542 462.671 310.379 460.948C313.217 459.225 316.409 458.364 319.955 458.364ZM323.299 467.712C319.955 467.712 317.27 468.801 315.243 470.98C313.217 473.159 312.203 476.148 312.203 479.948C312.203 483.748 313.217 486.737 315.243 488.916C317.27 491.044 319.955 492.108 323.299 492.108C326.542 492.108 329.202 491.019 331.279 488.84C333.407 486.611 334.471 483.647 334.471 479.948C334.471 476.199 333.407 473.235 331.279 471.056C329.202 468.827 326.542 467.712 323.299 467.712ZM367.895 458.364C371.441 458.364 374.456 459.2 376.939 460.872C379.472 462.544 381.296 464.799 382.411 467.636V444.76H393.051V501H382.411V492.184C381.296 495.021 379.472 497.301 376.939 499.024C374.456 500.696 371.441 501.532 367.895 501.532C364.348 501.532 361.156 500.671 358.319 498.948C355.481 497.225 353.252 494.743 351.631 491.5C350.06 488.207 349.275 484.356 349.275 479.948C349.275 475.54 350.06 471.715 351.631 468.472C353.252 465.179 355.481 462.671 358.319 460.948C361.156 459.225 364.348 458.364 367.895 458.364ZM371.239 467.712C367.895 467.712 365.209 468.801 363.183 470.98C361.156 473.159 360.143 476.148 360.143 479.948C360.143 483.748 361.156 486.737 363.183 488.916C365.209 491.044 367.895 492.108 371.239 492.108C374.481 492.108 377.141 491.019 379.219 488.84C381.347 486.611 382.411 483.647 382.411 479.948C382.411 476.199 381.347 473.235 379.219 471.056C377.141 468.827 374.481 467.712 371.239 467.712ZM418.798 458.364C422.902 458.364 426.575 459.225 429.818 460.948C433.111 462.671 435.695 465.179 437.57 468.472C439.445 471.715 440.382 475.54 440.382 479.948C440.382 484.356 439.445 488.181 437.57 491.424C435.695 494.667 433.111 497.175 429.818 498.948C426.575 500.671 422.902 501.532 418.798 501.532C414.694 501.532 410.995 500.671 407.702 498.948C404.459 497.175 401.901 494.667 400.026 491.424C398.151 488.181 397.214 484.356 397.214 479.948C397.214 475.54 398.151 471.715 400.026 468.472C401.901 465.179 404.459 462.671 407.702 460.948C410.995 459.225 414.694 458.364 418.798 458.364ZM418.798 467.636C415.809 467.636 413.275 468.7 411.198 470.828C409.121 472.905 408.082 475.945 408.082 479.948C408.082 483.951 409.121 487.016 411.198 489.144C413.275 491.221 415.809 492.26 418.798 492.26C421.787 492.26 424.321 491.221 426.398 489.144C428.475 487.016 429.514 483.951 429.514 479.948C429.514 475.945 428.475 472.905 426.398 470.828C424.321 468.7 421.787 467.636 418.798 467.636ZM455.251 466.952C456.822 464.267 458.899 462.164 461.483 460.644C464.067 459.073 466.955 458.288 470.147 458.288V469.764H467.031C459.178 469.764 455.251 473.412 455.251 480.708V501H444.535V458.896H455.251V466.952Z" fill="#0005B2"/>
<path d="M495.2 112.344V143.808C495.2 148.013 496.112 151.18 497.936 153.308C499.811 155.385 502.496 156.424 505.992 156.424C509.437 156.424 512.072 155.385 513.896 153.308C515.771 151.18 516.708 148.013 516.708 143.808V112.344H527.348V143.808C527.348 148.773 526.411 152.979 524.536 156.424C522.712 159.819 520.153 162.352 516.86 164.024C513.617 165.696 509.919 166.532 505.764 166.532C499.329 166.532 494.187 164.607 490.336 160.756C486.485 156.905 484.56 151.256 484.56 143.808V112.344H495.2ZM557.947 166L544.039 147.608V166H533.323V109.76H544.039V141.376L557.871 123.896H570.563L552.855 144.872L571.019 166H557.947ZM583.517 131.952C585.088 129.267 587.165 127.164 589.749 125.644C592.333 124.073 595.221 123.288 598.413 123.288V134.764H595.297C587.444 134.764 583.517 138.412 583.517 145.708V166H572.801V123.896H583.517V131.952ZM617.416 123.364C620.963 123.364 624.003 124.2 626.536 125.872C629.07 127.544 630.868 129.799 631.932 132.636V123.896H642.572V166H631.932V157.184C630.868 160.021 629.07 162.301 626.536 164.024C624.003 165.696 620.963 166.532 617.416 166.532C613.87 166.532 610.678 165.671 607.84 163.948C605.003 162.225 602.774 159.743 601.152 156.5C599.582 153.207 598.796 149.356 598.796 144.948C598.796 140.54 599.582 136.715 601.152 133.472C602.774 130.179 605.003 127.671 607.84 125.948C610.678 124.225 613.87 123.364 617.416 123.364ZM620.76 132.712C617.416 132.712 614.731 133.801 612.704 135.98C610.678 138.159 609.664 141.148 609.664 144.948C609.664 148.748 610.678 151.737 612.704 153.916C614.731 156.044 617.416 157.108 620.76 157.108C624.003 157.108 626.663 156.019 628.74 153.84C630.868 151.611 631.932 148.647 631.932 144.948C631.932 141.199 630.868 138.235 628.74 136.056C626.663 133.827 624.003 132.712 620.76 132.712ZM647.648 111.812C647.648 110.089 648.256 108.696 649.472 107.632C650.688 106.517 652.284 105.96 654.26 105.96C656.236 105.96 657.832 106.517 659.048 107.632C660.264 108.696 660.872 110.089 660.872 111.812C660.872 113.484 660.264 114.877 659.048 115.992C657.832 117.056 656.236 117.588 654.26 117.588C652.284 117.588 650.688 117.056 649.472 115.992C648.256 114.877 647.648 113.484 647.648 111.812ZM659.58 123.896V166H648.864V123.896H659.58ZM690.934 123.288C695.798 123.288 699.674 124.884 702.562 128.076C705.45 131.268 706.894 135.752 706.894 141.528V166H696.254V142.744C696.254 139.4 695.393 136.816 693.67 134.992C691.947 133.117 689.591 132.18 686.602 132.18C683.562 132.18 681.13 133.168 679.306 135.144C677.482 137.12 676.57 139.957 676.57 143.656V166H665.854V123.896H676.57V132.332C677.685 129.495 679.509 127.291 682.042 125.72C684.626 124.099 687.59 123.288 690.934 123.288ZM752.499 143.352C752.499 144.416 752.372 145.632 752.119 147H721.263C721.415 150.749 722.428 153.511 724.303 155.284C726.177 157.057 728.508 157.944 731.295 157.944C733.777 157.944 735.829 157.336 737.451 156.12C739.123 154.904 740.187 153.257 740.643 151.18H751.967C751.409 154.119 750.219 156.753 748.395 159.084C746.571 161.415 744.215 163.239 741.327 164.556C738.489 165.873 735.323 166.532 731.827 166.532C727.723 166.532 724.075 165.671 720.883 163.948C717.691 162.175 715.208 159.667 713.435 156.424C711.661 153.181 710.775 149.356 710.775 144.948C710.775 140.54 711.661 136.715 713.435 133.472C715.208 130.179 717.691 127.671 720.883 125.948C724.075 124.225 727.723 123.364 731.827 123.364C735.981 123.364 739.604 124.225 742.695 125.948C745.836 127.671 748.243 130.052 749.915 133.092C751.637 136.081 752.499 139.501 752.499 143.352ZM741.707 142.288C741.859 138.843 740.947 136.233 738.971 134.46C737.045 132.687 734.664 131.8 731.827 131.8C728.939 131.8 726.507 132.687 724.531 134.46C722.555 136.233 721.465 138.843 721.263 142.288H741.707Z" fill="#0005B2"/>
<path d="M430.58 148.792H448.592V157H419.864V103.344H430.58V148.792ZM468.041 114.364C471.588 114.364 474.628 115.2 477.161 116.872C479.695 118.544 481.493 120.799 482.557 123.636V114.896H493.197V157H482.557V148.184C481.493 151.021 479.695 153.301 477.161 155.024C474.628 156.696 471.588 157.532 468.041 157.532C464.495 157.532 461.303 156.671 458.465 154.948C455.628 153.225 453.399 150.743 451.777 147.5C450.207 144.207 449.421 140.356 449.421 135.948C449.421 131.54 450.207 127.715 451.777 124.472C453.399 121.179 455.628 118.671 458.465 116.948C461.303 115.225 464.495 114.364 468.041 114.364ZM471.385 123.712C468.041 123.712 465.356 124.801 463.329 126.98C461.303 129.159 460.289 132.148 460.289 135.948C460.289 139.748 461.303 142.737 463.329 144.916C465.356 147.044 468.041 148.108 471.385 148.108C474.628 148.108 477.288 147.019 479.365 144.84C481.493 142.611 482.557 139.647 482.557 135.948C482.557 132.199 481.493 129.235 479.365 127.056C477.288 124.827 474.628 123.712 471.385 123.712ZM521.985 147.804V157H516.361C511.649 157 508.026 155.86 505.493 153.58C503.01 151.3 501.769 147.5 501.769 142.18V123.94H495.917V114.896H501.769V104.484H512.485V114.896H521.909V123.94H512.485V142.332C512.485 144.359 512.89 145.777 513.701 146.588C514.512 147.399 515.88 147.804 517.805 147.804H521.985ZM544.592 146.284L555.232 114.896H566.632L551.052 157H537.98L522.4 114.896H533.876L544.592 146.284ZM567.952 102.812C567.952 101.089 568.56 99.696 569.776 98.632C570.992 97.5173 572.588 96.96 574.564 96.96C576.54 96.96 578.136 97.5173 579.352 98.632C580.568 99.696 581.176 101.089 581.176 102.812C581.176 104.484 580.568 105.877 579.352 106.992C578.136 108.056 576.54 108.588 574.564 108.588C572.588 108.588 570.992 108.056 569.776 106.992C568.56 105.877 567.952 104.484 567.952 102.812ZM579.884 114.896V157H569.168V114.896H579.884ZM602.651 114.364C606.197 114.364 609.237 115.2 611.771 116.872C614.304 118.544 616.103 120.799 617.167 123.636V114.896H627.807V157H617.167V148.184C616.103 151.021 614.304 153.301 611.771 155.024C609.237 156.696 606.197 157.532 602.651 157.532C599.104 157.532 595.912 156.671 593.075 154.948C590.237 153.225 588.008 150.743 586.387 147.5C584.816 144.207 584.031 140.356 584.031 135.948C584.031 131.54 584.816 127.715 586.387 124.472C588.008 121.179 590.237 118.671 593.075 116.948C595.912 115.225 599.104 114.364 602.651 114.364ZM605.995 123.712C602.651 123.712 599.965 124.801 597.939 126.98C595.912 129.159 594.899 132.148 594.899 135.948C594.899 139.748 595.912 142.737 597.939 144.916C599.965 147.044 602.651 148.108 605.995 148.108C609.237 148.108 611.897 147.019 613.975 144.84C616.103 142.611 617.167 139.647 617.167 135.948C617.167 132.199 616.103 129.235 613.975 127.056C611.897 124.827 609.237 123.712 605.995 123.712Z" fill="#0005B2"/>
<path d="M442.312 171H431.596L407.58 134.52V171H396.864V117.344H407.58L431.596 154.128V117.344H442.312V171ZM488.185 148.352C488.185 149.416 488.058 150.632 487.805 152H456.949C457.101 155.749 458.114 158.511 459.989 160.284C461.863 162.057 464.194 162.944 466.981 162.944C469.463 162.944 471.515 162.336 473.137 161.12C474.809 159.904 475.873 158.257 476.329 156.18H487.653C487.095 159.119 485.905 161.753 484.081 164.084C482.257 166.415 479.901 168.239 477.013 169.556C474.175 170.873 471.009 171.532 467.513 171.532C463.409 171.532 459.761 170.671 456.569 168.948C453.377 167.175 450.894 164.667 449.121 161.424C447.347 158.181 446.461 154.356 446.461 149.948C446.461 145.54 447.347 141.715 449.121 138.472C450.894 135.179 453.377 132.671 456.569 130.948C459.761 129.225 463.409 128.364 467.513 128.364C471.667 128.364 475.29 129.225 478.381 130.948C481.522 132.671 483.929 135.052 485.601 138.092C487.323 141.081 488.185 144.501 488.185 148.352ZM477.393 147.288C477.545 143.843 476.633 141.233 474.657 139.46C472.731 137.687 470.35 136.8 467.513 136.8C464.625 136.8 462.193 137.687 460.217 139.46C458.241 141.233 457.151 143.843 456.949 147.288H477.393ZM514.868 161.804V171H509.244C504.532 171 500.909 169.86 498.376 167.58C495.893 165.3 494.652 161.5 494.652 156.18V137.94H488.8V128.896H494.652V118.484H505.368V128.896H514.792V137.94H505.368V156.332C505.368 158.359 505.773 159.777 506.584 160.588C507.394 161.399 508.762 161.804 510.688 161.804H514.868ZM544.239 128.288C549.103 128.288 552.979 129.884 555.867 133.076C558.755 136.268 560.199 140.752 560.199 146.528V171H549.559V147.744C549.559 144.4 548.697 141.816 546.975 139.992C545.252 138.117 542.896 137.18 539.907 137.18C536.867 137.18 534.435 138.168 532.611 140.144C530.787 142.12 529.875 144.957 529.875 148.656V171H519.159V114.76H529.875V137.332C530.989 134.495 532.813 132.291 535.347 130.72C537.931 129.099 540.895 128.288 544.239 128.288ZM605.803 148.352C605.803 149.416 605.677 150.632 605.423 152H574.567C574.719 155.749 575.733 158.511 577.607 160.284C579.482 162.057 581.813 162.944 584.599 162.944C587.082 162.944 589.134 162.336 590.755 161.12C592.427 159.904 593.491 158.257 593.947 156.18H605.271C604.714 159.119 603.523 161.753 601.699 164.084C599.875 166.415 597.519 168.239 594.631 169.556C591.794 170.873 588.627 171.532 585.131 171.532C581.027 171.532 577.379 170.671 574.187 168.948C570.995 167.175 568.513 164.667 566.739 161.424C564.966 158.181 564.079 154.356 564.079 149.948C564.079 145.54 564.966 141.715 566.739 138.472C568.513 135.179 570.995 132.671 574.187 130.948C577.379 129.225 581.027 128.364 585.131 128.364C589.286 128.364 592.909 129.225 595.999 130.948C599.141 132.671 601.547 135.052 603.219 138.092C604.942 141.081 605.803 144.501 605.803 148.352ZM595.011 147.288C595.163 143.843 594.251 141.233 592.275 139.46C590.35 137.687 587.969 136.8 585.131 136.8C582.243 136.8 579.811 137.687 577.835 139.46C575.859 141.233 574.77 143.843 574.567 147.288H595.011ZM620.707 136.952C622.277 134.267 624.355 132.164 626.939 130.644C629.523 129.073 632.411 128.288 635.603 128.288V139.764H632.487C624.633 139.764 620.707 143.412 620.707 150.708V171H609.991V128.896H620.707V136.952ZM648.83 114.76V171H638.114V114.76H648.83ZM671.596 128.364C675.142 128.364 678.182 129.2 680.716 130.872C683.249 132.544 685.048 134.799 686.112 137.636V128.896H696.752V171H686.112V162.184C685.048 165.021 683.249 167.301 680.716 169.024C678.182 170.696 675.142 171.532 671.596 171.532C668.049 171.532 664.857 170.671 662.02 168.948C659.182 167.225 656.953 164.743 655.332 161.5C653.761 158.207 652.976 154.356 652.976 149.948C652.976 145.54 653.761 141.715 655.332 138.472C656.953 135.179 659.182 132.671 662.02 130.948C664.857 129.225 668.049 128.364 671.596 128.364ZM674.94 137.712C671.596 137.712 668.91 138.801 666.884 140.98C664.857 143.159 663.844 146.148 663.844 149.948C663.844 153.748 664.857 156.737 666.884 158.916C668.91 161.044 671.596 162.108 674.94 162.108C678.182 162.108 680.842 161.019 682.92 158.84C685.048 156.611 686.112 153.647 686.112 149.948C686.112 146.199 685.048 143.235 682.92 141.056C680.842 138.827 678.182 137.712 674.94 137.712ZM728.123 128.288C732.987 128.288 736.863 129.884 739.751 133.076C742.639 136.268 744.083 140.752 744.083 146.528V171H733.443V147.744C733.443 144.4 732.582 141.816 730.859 139.992C729.136 138.117 726.78 137.18 723.791 137.18C720.751 137.18 718.319 138.168 716.495 140.144C714.671 142.12 713.759 144.957 713.759 148.656V171H703.043V128.896H713.759V137.332C714.874 134.495 716.698 132.291 719.231 130.72C721.815 129.099 724.779 128.288 728.123 128.288ZM766.584 128.364C770.13 128.364 773.145 129.2 775.628 130.872C778.161 132.544 779.985 134.799 781.1 137.636V114.76H791.74V171H781.1V162.184C779.985 165.021 778.161 167.301 775.628 169.024C773.145 170.696 770.13 171.532 766.584 171.532C763.037 171.532 759.845 170.671 757.008 168.948C754.17 167.225 751.941 164.743 750.32 161.5C748.749 158.207 747.964 154.356 747.964 149.948C747.964 145.54 748.749 141.715 750.32 138.472C751.941 135.179 754.17 132.671 757.008 130.948C759.845 129.225 763.037 128.364 766.584 128.364ZM769.928 137.712C766.584 137.712 763.898 138.801 761.872 140.98C759.845 143.159 758.832 146.148 758.832 149.948C758.832 153.748 759.845 156.737 761.872 158.916C763.898 161.044 766.584 162.108 769.928 162.108C773.17 162.108 775.83 161.019 777.908 158.84C780.036 156.611 781.1 153.647 781.1 149.948C781.1 146.199 780.036 143.235 777.908 141.056C775.83 138.827 773.17 137.712 769.928 137.712ZM812.547 128.364C817.665 128.364 821.769 129.656 824.859 132.24C827.95 134.824 829.875 138.269 830.635 142.576H820.603C820.198 140.549 819.286 138.928 817.867 137.712C816.449 136.496 814.599 135.888 812.319 135.888C810.495 135.888 809.077 136.319 808.063 137.18C807.05 138.041 806.543 139.207 806.543 140.676C806.543 141.841 806.949 142.779 807.759 143.488C808.57 144.197 809.583 144.755 810.799 145.16C812.015 145.565 813.763 146.047 816.043 146.604C819.235 147.313 821.819 148.073 823.795 148.884C825.822 149.644 827.545 150.885 828.963 152.608C830.433 154.28 831.167 156.56 831.167 159.448C831.167 163.045 829.749 165.959 826.911 168.188C824.125 170.417 820.35 171.532 815.587 171.532C810.115 171.532 805.733 170.316 802.439 167.884C799.146 165.401 797.145 161.88 796.435 157.32H806.695C806.949 159.397 807.861 161.044 809.431 162.26C811.002 163.425 813.054 164.008 815.587 164.008C817.411 164.008 818.805 163.577 819.767 162.716C820.73 161.804 821.211 160.639 821.211 159.22C821.211 158.004 820.781 157.016 819.919 156.256C819.109 155.496 818.07 154.913 816.803 154.508C815.587 154.103 813.839 153.621 811.559 153.064C808.418 152.355 805.859 151.645 803.883 150.936C801.958 150.176 800.286 148.985 798.867 147.364C797.499 145.743 796.815 143.513 796.815 140.676C796.815 137.028 798.209 134.064 800.995 131.784C803.782 129.504 807.633 128.364 812.547 128.364Z" fill="#0005B2"/>
<path d="M430.58 166.344V220H419.864V166.344H430.58ZM459.35 210.804V220H453.726C449.014 220 445.391 218.86 442.858 216.58C440.375 214.3 439.134 210.5 439.134 205.18V186.94H433.282V177.896H439.134V167.484H449.85V177.896H459.274V186.94H449.85V205.332C449.85 207.359 450.255 208.777 451.066 209.588C451.877 210.399 453.245 210.804 455.17 210.804H459.35ZM480.133 177.364C483.68 177.364 486.72 178.2 489.253 179.872C491.787 181.544 493.585 183.799 494.649 186.636V177.896H505.289V220H494.649V211.184C493.585 214.021 491.787 216.301 489.253 218.024C486.72 219.696 483.68 220.532 480.133 220.532C476.587 220.532 473.395 219.671 470.557 217.948C467.72 216.225 465.491 213.743 463.869 210.5C462.299 207.207 461.513 203.356 461.513 198.948C461.513 194.54 462.299 190.715 463.869 187.472C465.491 184.179 467.72 181.671 470.557 179.948C473.395 178.225 476.587 177.364 480.133 177.364ZM483.477 186.712C480.133 186.712 477.448 187.801 475.421 189.98C473.395 192.159 472.381 195.148 472.381 198.948C472.381 202.748 473.395 205.737 475.421 207.916C477.448 210.044 480.133 211.108 483.477 211.108C486.72 211.108 489.38 210.019 491.457 207.84C493.585 205.611 494.649 202.647 494.649 198.948C494.649 195.199 493.585 192.235 491.457 190.056C489.38 187.827 486.72 186.712 483.477 186.712ZM522.297 163.76V220H511.581V163.76H522.297ZM535.791 177.896L547.267 206.472L557.907 177.896H569.687L543.923 240.064H532.067L541.567 218.784L523.859 177.896H535.791Z" fill="#0005B2"/>
<path d="M488.344 156.952V165.54H474.208V210H463.568V165.54H449.432V156.952H488.344ZM532.435 167.896V210H521.719V204.68C520.351 206.504 518.553 207.948 516.323 209.012C514.145 210.025 511.763 210.532 509.179 210.532C505.886 210.532 502.973 209.848 500.439 208.48C497.906 207.061 495.905 205.009 494.435 202.324C493.017 199.588 492.307 196.345 492.307 192.596V167.896H502.947V191.076C502.947 194.42 503.783 197.004 505.455 198.828C507.127 200.601 509.407 201.488 512.295 201.488C515.234 201.488 517.539 200.601 519.211 198.828C520.883 197.004 521.719 194.42 521.719 191.076V167.896H532.435ZM550.153 174.432C551.521 172.203 553.295 170.455 555.473 169.188C557.703 167.921 560.236 167.288 563.073 167.288V178.46H560.261C556.917 178.46 554.384 179.245 552.661 180.816C550.989 182.387 550.153 185.123 550.153 189.024V210H539.513V167.896H550.153V174.432ZM591.748 210L577.46 192.064V210H566.82V153.76H577.46V185.756L591.596 167.896H605.428L586.884 189.024L605.58 210H591.748ZM646.923 188.036C646.923 189.556 646.821 190.924 646.619 192.14H615.839C616.092 195.18 617.156 197.561 619.031 199.284C620.905 201.007 623.211 201.868 625.947 201.868C629.899 201.868 632.711 200.171 634.383 196.776H645.859C644.643 200.829 642.312 204.173 638.867 206.808C635.421 209.392 631.191 210.684 626.175 210.684C622.121 210.684 618.473 209.797 615.231 208.024C612.039 206.2 609.531 203.641 607.707 200.348C605.933 197.055 605.047 193.255 605.047 188.948C605.047 184.591 605.933 180.765 607.707 177.472C609.48 174.179 611.963 171.645 615.155 169.872C618.347 168.099 622.02 167.212 626.175 167.212C630.177 167.212 633.749 168.073 636.891 169.796C640.083 171.519 642.54 173.976 644.263 177.168C646.036 180.309 646.923 183.932 646.923 188.036ZM635.903 184.996C635.852 182.26 634.864 180.081 632.939 178.46C631.013 176.788 628.657 175.952 625.871 175.952C623.236 175.952 621.007 176.763 619.183 178.384C617.409 179.955 616.32 182.159 615.915 184.996H635.903ZM691.549 167.896L665.481 229.912H654.157L663.277 208.936L646.405 167.896H658.337L669.205 197.308L680.225 167.896H691.549Z" fill="#0005B2"/>
<path d="M458.832 192L446.292 171.1H441.58V192H430.864V138.344H451.308C457.54 138.344 462.277 139.864 465.52 142.904C468.813 145.944 470.46 149.947 470.46 154.912C470.46 158.965 469.32 162.36 467.04 165.096C464.811 167.832 461.568 169.656 457.312 170.568L470.688 192H458.832ZM441.58 163.728H450.396C456.527 163.728 459.592 161.017 459.592 155.596C459.592 153.012 458.832 151.011 457.312 149.592C455.843 148.123 453.537 147.388 450.396 147.388H441.58V163.728ZM493.732 149.364C497.836 149.364 501.509 150.225 504.752 151.948C508.045 153.671 510.629 156.179 512.504 159.472C514.379 162.715 515.316 166.54 515.316 170.948C515.316 175.356 514.379 179.181 512.504 182.424C510.629 185.667 508.045 188.175 504.752 189.948C501.509 191.671 497.836 192.532 493.732 192.532C489.628 192.532 485.929 191.671 482.636 189.948C479.393 188.175 476.835 185.667 474.96 182.424C473.085 179.181 472.148 175.356 472.148 170.948C472.148 166.54 473.085 162.715 474.96 159.472C476.835 156.179 479.393 153.671 482.636 151.948C485.929 150.225 489.628 149.364 493.732 149.364ZM493.732 158.636C490.743 158.636 488.209 159.7 486.132 161.828C484.055 163.905 483.016 166.945 483.016 170.948C483.016 174.951 484.055 178.016 486.132 180.144C488.209 182.221 490.743 183.26 493.732 183.26C496.721 183.26 499.255 182.221 501.332 180.144C503.409 178.016 504.448 174.951 504.448 170.948C504.448 166.945 503.409 163.905 501.332 161.828C499.255 159.7 496.721 158.636 493.732 158.636ZM573.049 149.288C578.167 149.288 582.195 150.884 585.133 154.076C588.123 157.217 589.617 161.701 589.617 167.528V192H578.977V168.744C578.977 165.501 578.141 163.019 576.469 161.296C574.848 159.523 572.593 158.636 569.705 158.636C566.716 158.636 564.335 159.573 562.561 161.448C560.788 163.323 559.901 166.059 559.901 169.656V192H549.261V168.744C549.261 165.501 548.425 163.019 546.753 161.296C545.132 159.523 542.877 158.636 539.989 158.636C537 158.636 534.619 159.573 532.845 161.448C531.072 163.323 530.185 166.059 530.185 169.656V192H519.469V149.896H530.185V157.876C531.3 155.14 533.048 153.037 535.429 151.568C537.861 150.048 540.673 149.288 543.865 149.288C547.26 149.288 550.199 150.099 552.681 151.72C555.215 153.341 557.115 155.672 558.381 158.712C559.699 155.824 561.649 153.544 564.233 151.872C566.868 150.149 569.807 149.288 573.049 149.288ZM612.104 149.364C615.65 149.364 618.69 150.2 621.224 151.872C623.757 153.544 625.556 155.799 626.62 158.636V149.896H637.26V192H626.62V183.184C625.556 186.021 623.757 188.301 621.224 190.024C618.69 191.696 615.65 192.532 612.104 192.532C608.557 192.532 605.365 191.671 602.528 189.948C599.69 188.225 597.461 185.743 595.84 182.5C594.269 179.207 593.484 175.356 593.484 170.948C593.484 166.54 594.269 162.715 595.84 159.472C597.461 156.179 599.69 153.671 602.528 151.948C605.365 150.225 608.557 149.364 612.104 149.364ZM615.448 158.712C612.104 158.712 609.418 159.801 607.392 161.98C605.365 164.159 604.352 167.148 604.352 170.948C604.352 174.748 605.365 177.737 607.392 179.916C609.418 182.044 612.104 183.108 615.448 183.108C618.69 183.108 621.35 182.019 623.428 179.84C625.556 177.611 626.62 174.647 626.62 170.948C626.62 167.199 625.556 164.235 623.428 162.056C621.35 159.827 618.69 158.712 615.448 158.712ZM668.631 149.288C673.495 149.288 677.371 150.884 680.259 154.076C683.147 157.268 684.591 161.752 684.591 167.528V192H673.951V168.744C673.951 165.4 673.09 162.816 671.367 160.992C669.645 159.117 667.289 158.18 664.299 158.18C661.259 158.18 658.827 159.168 657.003 161.144C655.179 163.12 654.267 165.957 654.267 169.656V192H643.551V149.896H654.267V158.332C655.382 155.495 657.206 153.291 659.739 151.72C662.323 150.099 665.287 149.288 668.631 149.288ZM689.384 137.812C689.384 136.089 689.992 134.696 691.208 133.632C692.424 132.517 694.02 131.96 695.996 131.96C697.972 131.96 699.568 132.517 700.784 133.632C702 134.696 702.608 136.089 702.608 137.812C702.608 139.484 702 140.877 700.784 141.992C699.568 143.056 697.972 143.588 695.996 143.588C694.02 143.588 692.424 143.056 691.208 141.992C689.992 140.877 689.384 139.484 689.384 137.812ZM701.316 149.896V192H690.6V149.896H701.316ZM724.082 149.364C727.629 149.364 730.669 150.2 733.202 151.872C735.735 153.544 737.534 155.799 738.598 158.636V149.896H749.238V192H738.598V183.184C737.534 186.021 735.735 188.301 733.202 190.024C730.669 191.696 727.629 192.532 724.082 192.532C720.535 192.532 717.343 191.671 714.506 189.948C711.669 188.225 709.439 185.743 707.818 182.5C706.247 179.207 705.462 175.356 705.462 170.948C705.462 166.54 706.247 162.715 707.818 159.472C709.439 156.179 711.669 153.671 714.506 151.948C717.343 150.225 720.535 149.364 724.082 149.364ZM727.426 158.712C724.082 158.712 721.397 159.801 719.37 161.98C717.343 164.159 716.33 167.148 716.33 170.948C716.33 174.748 717.343 177.737 719.37 179.916C721.397 182.044 724.082 183.108 727.426 183.108C730.669 183.108 733.329 182.019 735.406 179.84C737.534 177.611 738.598 174.647 738.598 170.948C738.598 167.199 737.534 164.235 735.406 162.056C733.329 159.827 730.669 158.712 727.426 158.712Z" fill="#0005B2"/>
<path d="M484.808 155.336C488.051 155.995 490.635 157.54 492.56 159.972C494.536 162.353 495.524 165.165 495.524 168.408C495.524 172.917 494.004 176.489 490.964 179.124C487.975 181.708 483.617 183 477.892 183H454.864V129.344H477.436C482.857 129.344 487.012 130.535 489.9 132.916C492.839 135.297 494.308 138.641 494.308 142.948C494.308 146.292 493.421 149.028 491.648 151.156C489.925 153.284 487.645 154.677 484.808 155.336ZM465.58 151.84H475.232C477.917 151.84 479.944 151.257 481.312 150.092C482.731 148.876 483.44 147.153 483.44 144.924C483.44 142.695 482.756 140.972 481.388 139.756C480.02 138.54 477.917 137.932 475.08 137.932H465.58V151.84ZM475.764 174.26C478.601 174.26 480.78 173.652 482.3 172.436C483.82 171.169 484.58 169.345 484.58 166.964C484.58 164.583 483.795 162.759 482.224 161.492C480.704 160.175 478.525 159.516 475.688 159.516H465.58V174.26H475.764ZM539.892 140.896V183H529.176V174.488C528.061 177.325 526.212 179.555 523.628 181.176C521.095 182.747 518.156 183.532 514.812 183.532C509.948 183.532 506.072 181.936 503.184 178.744C500.296 175.552 498.852 171.093 498.852 165.368V140.896H509.492V164.152C509.492 167.496 510.353 170.105 512.076 171.98C513.799 173.804 516.129 174.716 519.068 174.716C522.159 174.716 524.616 173.728 526.44 171.752C528.264 169.776 529.176 166.939 529.176 163.24V140.896H539.892ZM556.931 126.76V183H546.215V126.76H556.931ZM579.698 140.364C583.244 140.364 586.284 141.2 588.818 142.872C591.351 144.544 593.15 146.799 594.214 149.636V140.896H604.854V183.152C604.854 187.053 604.068 190.549 602.498 193.64C600.978 196.781 598.672 199.239 595.582 201.012C592.542 202.785 588.843 203.672 584.486 203.672C578.406 203.672 573.491 202.228 569.742 199.34C565.992 196.452 563.712 192.525 562.902 187.56H573.466C574.074 189.688 575.239 191.335 576.962 192.5C578.735 193.716 580.99 194.324 583.726 194.324C586.867 194.324 589.4 193.387 591.326 191.512C593.251 189.688 594.214 186.901 594.214 183.152V174.184C593.15 177.021 591.351 179.301 588.818 181.024C586.284 182.696 583.244 183.532 579.698 183.532C576.151 183.532 572.959 182.671 570.122 180.948C567.284 179.225 565.055 176.743 563.434 173.5C561.863 170.207 561.078 166.356 561.078 161.948C561.078 157.54 561.863 153.715 563.434 150.472C565.055 147.179 567.284 144.671 570.122 142.948C572.959 141.225 576.151 140.364 579.698 140.364ZM583.042 149.712C579.698 149.712 577.012 150.801 574.986 152.98C572.959 155.159 571.946 158.148 571.946 161.948C571.946 165.748 572.959 168.737 574.986 170.916C577.012 173.044 579.698 174.108 583.042 174.108C586.284 174.108 588.944 173.019 591.022 170.84C593.15 168.611 594.214 165.647 594.214 161.948C594.214 158.199 593.15 155.235 591.022 153.056C588.944 150.827 586.284 149.712 583.042 149.712ZM627.637 140.364C631.184 140.364 634.224 141.2 636.757 142.872C639.29 144.544 641.089 146.799 642.153 149.636V140.896H652.793V183H642.153V174.184C641.089 177.021 639.29 179.301 636.757 181.024C634.224 182.696 631.184 183.532 627.637 183.532C624.09 183.532 620.898 182.671 618.061 180.948C615.224 179.225 612.994 176.743 611.373 173.5C609.802 170.207 609.017 166.356 609.017 161.948C609.017 157.54 609.802 153.715 611.373 150.472C612.994 147.179 615.224 144.671 618.061 142.948C620.898 141.225 624.09 140.364 627.637 140.364ZM630.981 149.712C627.637 149.712 624.952 150.801 622.925 152.98C620.898 155.159 619.885 158.148 619.885 161.948C619.885 165.748 620.898 168.737 622.925 170.916C624.952 173.044 627.637 174.108 630.981 174.108C634.224 174.108 636.884 173.019 638.961 170.84C641.089 168.611 642.153 165.647 642.153 161.948C642.153 158.199 641.089 155.235 638.961 153.056C636.884 150.827 634.224 149.712 630.981 149.712ZM669.8 148.952C671.371 146.267 673.448 144.164 676.032 142.644C678.616 141.073 681.504 140.288 684.696 140.288V151.764H681.58C673.727 151.764 669.8 155.412 669.8 162.708V183H659.084V140.896H669.8V148.952ZM685.991 128.812C685.991 127.089 686.599 125.696 687.815 124.632C689.031 123.517 690.627 122.96 692.603 122.96C694.579 122.96 696.175 123.517 697.391 124.632C698.607 125.696 699.215 127.089 699.215 128.812C699.215 130.484 698.607 131.877 697.391 132.992C696.175 134.056 694.579 134.588 692.603 134.588C690.627 134.588 689.031 134.056 687.815 132.992C686.599 131.877 685.991 130.484 685.991 128.812ZM697.923 140.896V183H687.207V140.896H697.923ZM720.689 140.364C724.236 140.364 727.276 141.2 729.809 142.872C732.343 144.544 734.141 146.799 735.205 149.636V140.896H745.845V183H735.205V174.184C734.141 177.021 732.343 179.301 729.809 181.024C727.276 182.696 724.236 183.532 720.689 183.532C717.143 183.532 713.951 182.671 711.113 180.948C708.276 179.225 706.047 176.743 704.425 173.5C702.855 170.207 702.069 166.356 702.069 161.948C702.069 157.54 702.855 153.715 704.425 150.472C706.047 147.179 708.276 144.671 711.113 142.948C713.951 141.225 717.143 140.364 720.689 140.364ZM724.033 149.712C720.689 149.712 718.004 150.801 715.977 152.98C713.951 155.159 712.937 158.148 712.937 161.948C712.937 165.748 713.951 168.737 715.977 170.916C718.004 173.044 720.689 174.108 724.033 174.108C727.276 174.108 729.936 173.019 732.013 170.84C734.141 168.611 735.205 165.647 735.205 161.948C735.205 158.199 734.141 155.235 732.013 153.056C729.936 150.827 727.276 149.712 724.033 149.712Z" fill="#0005B2"/>
<path d="M475.248 140.952V194H464.608V171.428H441.884V194H431.244V140.952H441.884V162.764H464.608V140.952H475.248ZM522.049 151.896V194H511.333V188.68C509.965 190.504 508.166 191.948 505.937 193.012C503.758 194.025 501.377 194.532 498.793 194.532C495.499 194.532 492.586 193.848 490.053 192.48C487.519 191.061 485.518 189.009 484.049 186.324C482.63 183.588 481.921 180.345 481.921 176.596V151.896H492.561V175.076C492.561 178.42 493.397 181.004 495.069 182.828C496.741 184.601 499.021 185.488 501.909 185.488C504.847 185.488 507.153 184.601 508.825 182.828C510.497 181.004 511.333 178.42 511.333 175.076V151.896H522.049ZM552.459 151.288C557.475 151.288 561.528 152.884 564.619 156.076C567.709 159.217 569.255 163.625 569.255 169.3V194H558.615V170.744C558.615 167.4 557.779 164.841 556.107 163.068C554.435 161.244 552.155 160.332 549.267 160.332C546.328 160.332 543.997 161.244 542.275 163.068C540.603 164.841 539.767 167.4 539.767 170.744V194H529.127V151.896H539.767V157.14C541.185 155.316 542.984 153.897 545.163 152.884C547.392 151.82 549.824 151.288 552.459 151.288ZM592.445 151.212C595.586 151.212 598.347 151.845 600.729 153.112C603.11 154.328 604.985 155.924 606.353 157.9V151.896H617.069V194.304C617.069 198.205 616.283 201.676 614.713 204.716C613.142 207.807 610.786 210.239 607.645 212.012C604.503 213.836 600.703 214.748 596.245 214.748C590.266 214.748 585.351 213.355 581.501 210.568C577.701 207.781 575.547 203.981 575.041 199.168H585.605C586.162 201.093 587.353 202.613 589.177 203.728C591.051 204.893 593.306 205.476 595.941 205.476C599.031 205.476 601.539 204.539 603.465 202.664C605.39 200.84 606.353 198.053 606.353 194.304V187.768C604.985 189.744 603.085 191.391 600.653 192.708C598.271 194.025 595.535 194.684 592.445 194.684C588.898 194.684 585.655 193.772 582.717 191.948C579.778 190.124 577.447 187.565 575.725 184.272C574.053 180.928 573.217 177.103 573.217 172.796C573.217 168.54 574.053 164.765 575.725 161.472C577.447 158.179 579.753 155.645 582.641 153.872C585.579 152.099 588.847 151.212 592.445 151.212ZM606.353 172.948C606.353 170.364 605.846 168.16 604.833 166.336C603.819 164.461 602.451 163.043 600.729 162.08C599.006 161.067 597.157 160.56 595.181 160.56C593.205 160.56 591.381 161.041 589.709 162.004C588.037 162.967 586.669 164.385 585.605 166.26C584.591 168.084 584.085 170.263 584.085 172.796C584.085 175.329 584.591 177.559 585.605 179.484C586.669 181.359 588.037 182.803 589.709 183.816C591.431 184.829 593.255 185.336 595.181 185.336C597.157 185.336 599.006 184.855 600.729 183.892C602.451 182.879 603.819 181.46 604.833 179.636C605.846 177.761 606.353 175.532 606.353 172.948ZM621.305 172.796C621.305 168.54 622.141 164.765 623.813 161.472C625.535 158.179 627.841 155.645 630.729 153.872C633.667 152.099 636.935 151.212 640.533 151.212C643.674 151.212 646.41 151.845 648.741 153.112C651.122 154.379 653.022 155.975 654.441 157.9V151.896H665.157V194H654.441V187.844C653.073 189.82 651.173 191.467 648.741 192.784C646.359 194.051 643.598 194.684 640.457 194.684C636.91 194.684 633.667 193.772 630.729 191.948C627.841 190.124 625.535 187.565 623.813 184.272C622.141 180.928 621.305 177.103 621.305 172.796ZM654.441 172.948C654.441 170.364 653.934 168.16 652.921 166.336C651.907 164.461 650.539 163.043 648.817 162.08C647.094 161.067 645.245 160.56 643.269 160.56C641.293 160.56 639.469 161.041 637.797 162.004C636.125 162.967 634.757 164.385 633.693 166.26C632.679 168.084 632.173 170.263 632.173 172.796C632.173 175.329 632.679 177.559 633.693 179.484C634.757 181.359 636.125 182.803 637.797 183.816C639.519 184.829 641.343 185.336 643.269 185.336C645.245 185.336 647.094 184.855 648.817 183.892C650.539 182.879 651.907 181.46 652.921 179.636C653.934 177.761 654.441 175.532 654.441 172.948ZM682.768 158.432C684.136 156.203 685.91 154.455 688.088 153.188C690.318 151.921 692.851 151.288 695.688 151.288V162.46H692.876C689.532 162.46 686.999 163.245 685.276 164.816C683.604 166.387 682.768 169.123 682.768 173.024V194H672.128V151.896H682.768V158.432ZM739.715 151.896L713.647 213.912H702.323L711.443 192.936L694.571 151.896H706.503L717.371 181.308L728.391 151.896H739.715Z" fill="#0005B2"/>
<path d="M496.928 146.368C496.928 149.205 496.244 151.865 494.876 154.348C493.559 156.831 491.456 158.832 488.568 160.352C485.731 161.872 482.133 162.632 477.776 162.632H468.884V183H458.244V129.952H477.776C481.88 129.952 485.376 130.661 488.264 132.08C491.152 133.499 493.305 135.449 494.724 137.932C496.193 140.415 496.928 143.227 496.928 146.368ZM477.32 154.044C480.259 154.044 482.437 153.385 483.856 152.068C485.275 150.7 485.984 148.8 485.984 146.368C485.984 141.2 483.096 138.616 477.32 138.616H468.884V154.044H477.32ZM519.758 183.684C515.705 183.684 512.057 182.797 508.814 181.024C505.572 179.2 503.013 176.641 501.138 173.348C499.314 170.055 498.402 166.255 498.402 161.948C498.402 157.641 499.34 153.841 501.214 150.548C503.14 147.255 505.749 144.721 509.042 142.948C512.336 141.124 516.009 140.212 520.062 140.212C524.116 140.212 527.789 141.124 531.082 142.948C534.376 144.721 536.96 147.255 538.834 150.548C540.76 153.841 541.722 157.641 541.722 161.948C541.722 166.255 540.734 170.055 538.758 173.348C536.833 176.641 534.198 179.2 530.854 181.024C527.561 182.797 523.862 183.684 519.758 183.684ZM519.758 174.412C521.684 174.412 523.482 173.956 525.154 173.044C526.877 172.081 528.245 170.663 529.258 168.788C530.272 166.913 530.778 164.633 530.778 161.948C530.778 157.945 529.714 154.88 527.586 152.752C525.509 150.573 522.95 149.484 519.91 149.484C516.87 149.484 514.312 150.573 512.234 152.752C510.208 154.88 509.194 157.945 509.194 161.948C509.194 165.951 510.182 169.041 512.158 171.22C514.185 173.348 516.718 174.412 519.758 174.412ZM556.747 126.76V183H546.107V126.76H556.747ZM561.103 161.796C561.103 157.54 561.939 153.765 563.611 150.472C565.334 147.179 567.639 144.645 570.527 142.872C573.466 141.099 576.734 140.212 580.331 140.212C583.473 140.212 586.209 140.845 588.539 142.112C590.921 143.379 592.821 144.975 594.239 146.9V140.896H604.955V183H594.239V176.844C592.871 178.82 590.971 180.467 588.539 181.784C586.158 183.051 583.397 183.684 580.255 183.684C576.709 183.684 573.466 182.772 570.527 180.948C567.639 179.124 565.334 176.565 563.611 173.272C561.939 169.928 561.103 166.103 561.103 161.796ZM594.239 161.948C594.239 159.364 593.733 157.16 592.719 155.336C591.706 153.461 590.338 152.043 588.615 151.08C586.893 150.067 585.043 149.56 583.067 149.56C581.091 149.56 579.267 150.041 577.595 151.004C575.923 151.967 574.555 153.385 573.491 155.26C572.478 157.084 571.971 159.263 571.971 161.796C571.971 164.329 572.478 166.559 573.491 168.484C574.555 170.359 575.923 171.803 577.595 172.816C579.318 173.829 581.142 174.336 583.067 174.336C585.043 174.336 586.893 173.855 588.615 172.892C590.338 171.879 591.706 170.46 592.719 168.636C593.733 166.761 594.239 164.532 594.239 161.948ZM635.259 140.288C640.275 140.288 644.329 141.884 647.419 145.076C650.51 148.217 652.055 152.625 652.055 158.3V183H641.415V159.744C641.415 156.4 640.579 153.841 638.907 152.068C637.235 150.244 634.955 149.332 632.067 149.332C629.129 149.332 626.798 150.244 625.075 152.068C623.403 153.841 622.567 156.4 622.567 159.744V183H611.927V140.896H622.567V146.14C623.986 144.316 625.785 142.897 627.963 141.884C630.193 140.82 632.625 140.288 635.259 140.288ZM656.017 161.796C656.017 157.54 656.853 153.765 658.525 150.472C660.248 147.179 662.579 144.645 665.517 142.872C668.456 141.099 671.724 140.212 675.321 140.212C678.057 140.212 680.667 140.82 683.149 142.036C685.632 143.201 687.608 144.772 689.077 146.748V126.76H699.869V183H689.077V176.768C687.76 178.845 685.911 180.517 683.529 181.784C681.148 183.051 678.387 183.684 675.245 183.684C671.699 183.684 668.456 182.772 665.517 180.948C662.579 179.124 660.248 176.565 658.525 173.272C656.853 169.928 656.017 166.103 656.017 161.796ZM689.153 161.948C689.153 159.364 688.647 157.16 687.633 155.336C686.62 153.461 685.252 152.043 683.529 151.08C681.807 150.067 679.957 149.56 677.981 149.56C676.005 149.56 674.181 150.041 672.509 151.004C670.837 151.967 669.469 153.385 668.405 155.26C667.392 157.084 666.885 159.263 666.885 161.796C666.885 164.329 667.392 166.559 668.405 168.484C669.469 170.359 670.837 171.803 672.509 172.816C674.232 173.829 676.056 174.336 677.981 174.336C679.957 174.336 681.807 173.855 683.529 172.892C685.252 171.879 686.62 170.46 687.633 168.636C688.647 166.761 689.153 164.532 689.153 161.948Z" fill="#0005B2"/>
</svg>
