<svg width="807" height="417" viewBox="0 0 807 417" fill="none" xmlns="http://www.w3.org/2000/svg">
<path d="M573.939 169.858L560.63 182.915L547.321 169.858C539.971 162.646 539.971 150.953 547.321 143.742C554.671 136.53 566.589 136.53 573.939 143.742C581.29 150.953 581.29 162.646 573.939 169.858ZM560.63 165.007C565.25 165.007 568.995 161.332 568.995 156.8C568.995 152.267 565.25 148.592 560.63 148.592C556.01 148.592 552.265 152.267 552.265 156.8C552.265 161.332 556.01 165.007 560.63 165.007ZM560.63 160.903C558.32 160.903 556.447 159.066 556.447 156.8C556.447 154.533 558.32 152.696 560.63 152.696C562.94 152.696 564.813 154.533 564.813 156.8C564.813 159.066 562.94 160.903 560.63 160.903Z" fill="#0005B2"/>
<path d="M240.046 246.335L230.5 256L220.954 246.335C215.682 240.997 215.682 232.341 220.954 227.004C226.226 221.665 234.774 221.665 240.046 227.004C245.318 232.341 245.318 240.997 240.046 246.335ZM230.5 242.744C233.813 242.744 236.5 240.024 236.5 236.669C236.5 233.314 233.813 230.594 230.5 230.594C227.186 230.594 224.5 233.314 224.5 236.669C224.5 240.024 227.186 242.744 230.5 242.744ZM230.5 239.707C228.843 239.707 227.499 238.347 227.499 236.669C227.499 234.991 228.843 233.632 230.5 233.632C232.157 233.632 233.5 234.991 233.5 236.669C233.5 238.347 232.157 239.707 230.5 239.707Z" fill="#0005B2"/>
<path d="M365.924 224.971L358.5 232L351.075 224.971C346.975 221.089 346.975 214.794 351.075 210.912C355.175 207.029 361.824 207.029 365.924 210.912C370.025 214.794 370.025 221.089 365.924 224.971ZM358.5 222.36C361.077 222.36 363.166 220.381 363.166 217.941C363.166 215.501 361.077 213.523 358.5 213.523C355.922 213.523 353.833 215.501 353.833 217.941C353.833 220.381 355.922 222.36 358.5 222.36ZM358.5 220.15C357.211 220.15 356.166 219.161 356.166 217.941C356.166 216.721 357.211 215.732 358.5 215.732C359.788 215.732 360.833 216.721 360.833 217.941C360.833 219.161 359.788 220.15 358.5 220.15Z" fill="#0005B2"/>
<path d="M31.525 390.249L18.467 403.558L5.409 390.249C-1.803 382.899 -1.803 370.981 5.409 363.631C12.621 356.281 24.313 356.281 31.525 363.631C38.736 370.981 38.736 382.899 31.525 390.249ZM18.467 385.305C23 385.305 26.674 381.56 26.674 376.94C26.674 372.32 23 368.575 18.467 368.575C13.934 368.575 10.259 372.32 10.259 376.94C10.259 381.56 13.934 385.305 18.467 385.305ZM18.467 381.123C16.2 381.123 14.363 379.25 14.363 376.94C14.363 374.63 16.2 372.757 18.467 372.757C20.733 372.757 22.571 374.63 22.571 376.94C22.571 379.25 20.733 381.123 18.467 381.123Z" fill="#0005B2"/>
<mask id="mask0_519_6" style="mask-type:luminance" maskUnits="userSpaceOnUse" x="245" y="46" width="27" height="26">
<path d="M271.318 46.1572H245.749V71.7265H271.318V46.1572Z" fill="white"/>
</mask>
<g mask="url(#mask0_519_6)">
<path d="M265.314 64.6573L258.534 71.4373L251.754 64.6573C248.009 60.9123 248.009 54.8413 251.754 51.0973C255.498 47.3523 261.569 47.3523 265.314 51.0973C269.059 54.8413 269.059 60.9123 265.314 64.6573ZM258.534 62.1383C260.887 62.1383 262.795 60.2303 262.795 57.8773C262.795 55.5233 260.887 53.6153 258.534 53.6153C256.18 53.6153 254.272 55.5233 254.272 57.8773C254.272 60.2303 256.18 62.1383 258.534 62.1383ZM258.534 60.0083C257.357 60.0083 256.403 59.0543 256.403 57.8773C256.403 56.7003 257.357 55.7463 258.534 55.7463C259.711 55.7463 260.665 56.7003 260.665 57.8773C260.665 59.0543 259.711 60.0083 258.534 60.0083Z" fill="#0005B2"/>
</g>
<mask id="mask1_519_6" style="mask-type:luminance" maskUnits="userSpaceOnUse" x="283" y="38" width="23" height="23">
<path d="M305.411 38.5811H283.63V60.3623H305.411V38.5811Z" fill="white"/>
</mask>
<g mask="url(#mask1_519_6)">
<path d="M300.296 54.34L294.52 60.116L288.745 54.34C285.555 51.15 285.555 45.979 288.745 42.789C291.934 39.599 297.106 39.599 300.296 42.789C303.486 45.979 303.486 51.15 300.296 54.34ZM294.52 52.195C296.525 52.195 298.15 50.569 298.15 48.564C298.15 46.56 296.525 44.934 294.52 44.934C292.515 44.934 290.89 46.56 290.89 48.564C290.89 50.569 292.515 52.195 294.52 52.195ZM294.52 50.38C293.518 50.38 292.705 49.567 292.705 48.564C292.705 47.562 293.518 46.749 294.52 46.749C295.523 46.749 296.335 47.562 296.335 48.564C296.335 49.567 295.523 50.38 294.52 50.38Z" fill="#0005B2"/>
</g>
<path d="M299.571 77.068L294.047 82.844L288.522 77.068C285.471 73.879 285.471 68.707 288.522 65.517C291.573 62.327 296.52 62.327 299.571 65.517C302.622 68.707 302.622 73.879 299.571 77.068ZM294.047 74.923C295.965 74.923 297.519 73.298 297.519 71.293C297.519 69.288 295.965 67.663 294.047 67.663C292.129 67.663 290.574 69.288 290.574 71.293C290.574 73.298 292.129 74.923 294.047 74.923ZM294.047 73.108C293.088 73.108 292.311 72.295 292.311 71.293C292.311 70.29 293.088 69.478 294.047 69.478C295.006 69.478 295.783 70.29 295.783 71.293C295.783 72.295 295.006 73.108 294.047 73.108Z" fill="#0005B2"/>
<mask id="mask2_519_6" style="mask-type:luminance" maskUnits="userSpaceOnUse" x="305" y="50" width="22" height="23">
<path d="M326.245 50.8921H305.411V72.6733H326.245V50.8921Z" fill="white"/>
</mask>
<g mask="url(#mask2_519_6)">
<path d="M321.352 66.651L315.828 72.427L310.303 66.651C307.252 63.461 307.252 58.29 310.303 55.1C313.354 51.91 318.301 51.91 321.352 55.1C324.403 58.29 324.403 63.461 321.352 66.651ZM315.828 64.506C317.745 64.506 319.3 62.88 319.3 60.875C319.3 58.871 317.745 57.245 315.828 57.245C313.91 57.245 312.355 58.871 312.355 60.875C312.355 62.88 313.91 64.506 315.828 64.506ZM315.828 62.691C314.869 62.691 314.091 61.878 314.091 60.875C314.091 59.873 314.869 59.06 315.828 59.06C316.787 59.06 317.564 59.873 317.564 60.875C317.564 61.878 316.787 62.691 315.828 62.691Z" fill="#0005B2"/>
</g>
<path d="M342.186 57.1808L336.662 62.9568L331.137 57.1808C328.086 53.9908 328.086 48.8198 331.137 45.6298C334.188 42.4398 339.135 42.4398 342.186 45.6298C345.237 48.8198 345.237 53.9908 342.186 57.1808ZM336.662 55.0358C338.579 55.0358 340.134 53.4098 340.134 51.4058C340.134 49.4008 338.579 47.7748 336.662 47.7748C334.744 47.7748 333.189 49.4008 333.189 51.4058C333.189 53.4098 334.744 55.0358 336.662 55.0358ZM336.662 53.2208C335.703 53.2208 334.925 52.4078 334.925 51.4058C334.925 50.4028 335.703 49.5898 336.662 49.5898C337.62 49.5898 338.398 50.4028 338.398 51.4058C338.398 52.4078 337.62 53.2208 336.662 53.2208Z" fill="#0005B2"/>
<mask id="mask3_519_6" style="mask-type:luminance" maskUnits="userSpaceOnUse" x="268" y="83" width="25" height="24">
<path d="M292.152 83.0908H268.477V106.766H292.152V83.0908Z" fill="white"/>
</mask>
<g mask="url(#mask3_519_6)">
<path d="M286.593 100.22L280.315 106.498L274.037 100.22C270.57 96.7527 270.57 91.1307 274.037 87.6637C277.504 84.1967 283.126 84.1967 286.593 87.6637C290.06 91.1307 290.06 96.7527 286.593 100.22ZM280.315 97.8877C282.494 97.8877 284.261 96.1207 284.261 93.9417C284.261 91.7627 282.494 89.9957 280.315 89.9957C278.136 89.9957 276.369 91.7627 276.369 93.9417C276.369 96.1207 278.136 97.8877 280.315 97.8877ZM280.315 95.9147C279.225 95.9147 278.342 95.0317 278.342 93.9417C278.342 92.8517 279.225 91.9687 280.315 91.9687C281.405 91.9687 282.288 92.8517 282.288 93.9417C282.288 95.0317 281.405 95.9147 280.315 95.9147Z" fill="#0005B2"/>
</g>
<mask id="mask4_519_6" style="mask-type:luminance" maskUnits="userSpaceOnUse" x="309" y="73" width="24" height="25">
<path d="M332.874 73.6211H309.199V97.2963H332.874V73.6211Z" fill="white"/>
</mask>
<g mask="url(#mask4_519_6)">
<path d="M327.314 90.75L321.037 97.027L314.759 90.75C311.292 87.282 311.292 81.661 314.759 78.194C318.226 74.727 323.847 74.727 327.314 78.194C330.782 81.661 330.782 87.282 327.314 90.75ZM321.037 88.418C323.216 88.418 324.982 86.651 324.982 84.472C324.982 82.292 323.216 80.526 321.037 80.526C318.857 80.526 317.091 82.292 317.091 84.472C317.091 86.651 318.857 88.418 321.037 88.418ZM321.037 86.445C319.947 86.445 319.064 85.561 319.064 84.472C319.064 83.382 319.947 82.499 321.037 82.499C322.126 82.499 323.009 83.382 323.009 84.472C323.009 85.561 322.126 86.445 321.037 86.445Z" fill="#0005B2"/>
</g>
<path d="M365.195 127.683L358.917 133.961L352.639 127.683C349.172 124.216 349.172 118.594 352.639 115.127C356.106 111.66 361.728 111.66 365.195 115.127C368.662 118.594 368.662 124.216 365.195 127.683ZM358.917 125.351C361.096 125.351 362.863 123.584 362.863 121.405C362.863 119.226 361.096 117.459 358.917 117.459C356.738 117.459 354.971 119.226 354.971 121.405C354.971 123.584 356.738 125.351 358.917 125.351ZM358.917 123.378C357.827 123.378 356.944 122.495 356.944 121.405C356.944 120.315 357.827 119.432 358.917 119.432C360.007 119.432 360.89 120.315 360.89 121.405C360.89 122.495 360.007 123.378 358.917 123.378Z" fill="#0005B2"/>
<mask id="mask5_519_6" style="mask-type:luminance" maskUnits="userSpaceOnUse" x="297" y="98" width="16" height="16">
<path d="M312.04 98.2432H297.835V113.395H312.04V98.2432Z" fill="white"/>
</mask>
<g mask="url(#mask5_519_6)">
<path d="M308.704 109.206L304.937 113.223L301.17 109.206C299.09 106.986 299.09 103.389 301.17 101.17C303.251 98.9511 306.623 98.9511 308.704 101.17C310.784 103.389 310.784 106.986 308.704 109.206ZM304.937 107.713C306.244 107.713 307.304 106.582 307.304 105.188C307.304 103.793 306.244 102.662 304.937 102.662C303.629 102.662 302.569 103.793 302.569 105.188C302.569 106.582 303.629 107.713 304.937 107.713ZM304.937 106.45C304.283 106.45 303.753 105.885 303.753 105.188C303.753 104.49 304.283 103.925 304.937 103.925C305.591 103.925 306.121 104.49 306.121 105.188C306.121 105.885 305.591 106.45 304.937 106.45Z" fill="#0005B2"/>
</g>
<path d="M66.8361 361.856V375.764H85.8361V383.972H66.8361V398.412H88.1161V407H56.1201V353.344H88.1161V361.856H66.8361ZM111.554 364.364C116.975 364.364 121.484 365.833 125.082 368.772C128.73 371.711 131.01 375.713 131.922 380.78H120.598C120.142 378.551 119.103 376.803 117.482 375.536C115.86 374.219 113.808 373.56 111.326 373.56C108.488 373.56 106.107 374.624 104.182 376.752C102.307 378.829 101.37 381.895 101.37 385.948C101.37 390.001 102.307 393.092 104.182 395.22C106.107 397.297 108.488 398.336 111.326 398.336C113.808 398.336 115.86 397.703 117.482 396.436C119.103 395.119 120.142 393.345 120.598 391.116H131.922C131.01 396.183 128.73 400.185 125.082 403.124C121.484 406.063 116.975 407.532 111.554 407.532C107.45 407.532 103.802 406.671 100.61 404.948C97.4178 403.175 94.9351 400.667 93.1618 397.424C91.3885 394.181 90.5018 390.356 90.5018 385.948C90.5018 381.54 91.3885 377.715 93.1618 374.472C94.9351 371.179 97.4178 368.671 100.61 366.948C103.802 365.225 107.45 364.364 111.554 364.364ZM176.396 364.896V407H165.68V398.488C164.565 401.325 162.716 403.555 160.132 405.176C157.599 406.747 154.66 407.532 151.316 407.532C146.452 407.532 142.576 405.936 139.688 402.744C136.8 399.552 135.356 395.093 135.356 389.368V364.896H145.996V388.152C145.996 391.496 146.857 394.105 148.58 395.98C150.303 397.804 152.633 398.716 155.572 398.716C158.663 398.716 161.12 397.728 162.944 395.752C164.768 393.776 165.68 390.939 165.68 387.24V364.896H176.396ZM199.211 364.364C202.758 364.364 205.798 365.2 208.331 366.872C210.865 368.544 212.663 370.799 213.727 373.636V364.896H224.367V407H213.727V398.184C212.663 401.021 210.865 403.301 208.331 405.024C205.798 406.696 202.758 407.532 199.211 407.532C195.665 407.532 192.473 406.671 189.635 404.948C186.798 403.225 184.569 400.743 182.947 397.5C181.377 394.207 180.591 390.356 180.591 385.948C180.591 381.54 181.377 377.715 182.947 374.472C184.569 371.179 186.798 368.671 189.635 366.948C192.473 365.225 195.665 364.364 199.211 364.364ZM202.555 373.712C199.211 373.712 196.526 374.801 194.499 376.98C192.473 379.159 191.459 382.148 191.459 385.948C191.459 389.748 192.473 392.737 194.499 394.916C196.526 397.044 199.211 398.108 202.555 398.108C205.798 398.108 208.458 397.019 210.535 394.84C212.663 392.611 213.727 389.647 213.727 385.948C213.727 382.199 212.663 379.235 210.535 377.056C208.458 374.827 205.798 373.712 202.555 373.712ZM247.151 364.364C250.698 364.364 253.712 365.2 256.195 366.872C258.728 368.544 260.552 370.799 261.667 373.636V350.76H272.307V407H261.667V398.184C260.552 401.021 258.728 403.301 256.195 405.024C253.712 406.696 250.698 407.532 247.151 407.532C243.604 407.532 240.412 406.671 237.575 404.948C234.738 403.225 232.508 400.743 230.887 397.5C229.316 394.207 228.531 390.356 228.531 385.948C228.531 381.54 229.316 377.715 230.887 374.472C232.508 371.179 234.738 368.671 237.575 366.948C240.412 365.225 243.604 364.364 247.151 364.364ZM250.495 373.712C247.151 373.712 244.466 374.801 242.439 376.98C240.412 379.159 239.399 382.148 239.399 385.948C239.399 389.748 240.412 392.737 242.439 394.916C244.466 397.044 247.151 398.108 250.495 398.108C253.738 398.108 256.398 397.019 258.475 394.84C260.603 392.611 261.667 389.647 261.667 385.948C261.667 382.199 260.603 379.235 258.475 377.056C256.398 374.827 253.738 373.712 250.495 373.712ZM298.054 364.364C302.158 364.364 305.832 365.225 309.074 366.948C312.368 368.671 314.952 371.179 316.826 374.472C318.701 377.715 319.638 381.54 319.638 385.948C319.638 390.356 318.701 394.181 316.826 397.424C314.952 400.667 312.368 403.175 309.074 404.948C305.832 406.671 302.158 407.532 298.054 407.532C293.95 407.532 290.252 406.671 286.958 404.948C283.716 403.175 281.157 400.667 279.282 397.424C277.408 394.181 276.47 390.356 276.47 385.948C276.47 381.54 277.408 377.715 279.282 374.472C281.157 371.179 283.716 368.671 286.958 366.948C290.252 365.225 293.95 364.364 298.054 364.364ZM298.054 373.636C295.065 373.636 292.532 374.7 290.454 376.828C288.377 378.905 287.338 381.945 287.338 385.948C287.338 389.951 288.377 393.016 290.454 395.144C292.532 397.221 295.065 398.26 298.054 398.26C301.044 398.26 303.577 397.221 305.654 395.144C307.732 393.016 308.77 389.951 308.77 385.948C308.77 381.945 307.732 378.905 305.654 376.828C303.577 374.7 301.044 373.636 298.054 373.636ZM334.508 372.952C336.078 370.267 338.156 368.164 340.74 366.644C343.324 365.073 346.212 364.288 349.404 364.288V375.764H346.288C338.434 375.764 334.508 379.412 334.508 386.708V407H323.792V364.896H334.508V372.952Z" fill="#0005B2"/>
<path d="M253.505 240.95C253.505 237.997 254.164 235.36 255.483 233.038C256.83 230.687 258.651 228.867 260.944 227.577C263.266 226.258 265.86 225.599 268.727 225.599C272.081 225.599 275.019 226.459 277.542 228.179C280.065 229.899 281.828 232.278 282.831 235.317H275.908C275.22 233.884 274.245 232.809 272.984 232.092C271.751 231.375 270.318 231.017 268.684 231.017C266.935 231.017 265.373 231.433 263.997 232.264C262.65 233.067 261.589 234.213 260.815 235.704C260.07 237.195 259.697 238.943 259.697 240.95C259.697 242.928 260.07 244.677 260.815 246.196C261.589 247.687 262.65 248.848 263.997 249.679C265.373 250.482 266.935 250.883 268.684 250.883C270.318 250.883 271.751 250.525 272.984 249.808C274.245 249.063 275.22 247.973 275.908 246.54H282.831C281.828 249.607 280.065 252.001 277.542 253.721C275.048 255.412 272.11 256.258 268.727 256.258C265.86 256.258 263.266 255.613 260.944 254.323C258.651 253.004 256.83 251.184 255.483 248.862C254.164 246.54 253.505 243.903 253.505 240.95ZM296.616 256.387C294.323 256.387 292.259 255.885 290.424 254.882C288.589 253.85 287.142 252.402 286.081 250.539C285.049 248.676 284.533 246.526 284.533 244.089C284.533 241.652 285.063 239.502 286.124 237.639C287.213 235.776 288.69 234.342 290.553 233.339C292.416 232.307 294.495 231.791 296.788 231.791C299.081 231.791 301.16 232.307 303.023 233.339C304.886 234.342 306.348 235.776 307.409 237.639C308.498 239.502 309.043 241.652 309.043 244.089C309.043 246.526 308.484 248.676 307.366 250.539C306.277 252.402 304.786 253.85 302.894 254.882C301.031 255.885 298.938 256.387 296.616 256.387ZM296.616 251.141C297.705 251.141 298.723 250.883 299.669 250.367C300.644 249.822 301.418 249.02 301.991 247.959C302.564 246.898 302.851 245.608 302.851 244.089C302.851 241.824 302.249 240.09 301.045 238.886C299.87 237.653 298.422 237.037 296.702 237.037C294.982 237.037 293.534 237.653 292.359 238.886C291.212 240.09 290.639 241.824 290.639 244.089C290.639 246.354 291.198 248.102 292.316 249.335C293.463 250.539 294.896 251.141 296.616 251.141ZM324.725 231.834C327.563 231.834 329.856 232.737 331.605 234.543C333.353 236.32 334.228 238.814 334.228 242.025V256H328.208V242.842C328.208 240.95 327.735 239.502 326.789 238.499C325.843 237.467 324.553 236.951 322.919 236.951C321.256 236.951 319.937 237.467 318.963 238.499C318.017 239.502 317.544 240.95 317.544 242.842V256H311.524V232.178H317.544V235.145C318.346 234.113 319.364 233.31 320.597 232.737C321.858 232.135 323.234 231.834 324.725 231.834ZM347.348 231.791C349.126 231.791 350.688 232.149 352.035 232.866C353.383 233.554 354.443 234.457 355.217 235.575V232.178H361.28V256.172C361.28 258.379 360.836 260.343 359.947 262.063C359.059 263.812 357.726 265.188 355.948 266.191C354.171 267.223 352.021 267.739 349.498 267.739C346.116 267.739 343.335 266.951 341.156 265.374C339.006 263.797 337.788 261.647 337.501 258.924H343.478C343.794 260.013 344.467 260.873 345.499 261.504C346.56 262.163 347.836 262.493 349.326 262.493C351.075 262.493 352.494 261.963 353.583 260.902C354.673 259.87 355.217 258.293 355.217 256.172V252.474C354.443 253.592 353.368 254.524 351.992 255.269C350.645 256.014 349.097 256.387 347.348 256.387C345.342 256.387 343.507 255.871 341.844 254.839C340.182 253.807 338.863 252.359 337.888 250.496C336.942 248.604 336.469 246.44 336.469 244.003C336.469 241.595 336.942 239.459 337.888 237.596C338.863 235.733 340.167 234.299 341.801 233.296C343.464 232.293 345.313 231.791 347.348 231.791ZM355.217 244.089C355.217 242.627 354.931 241.38 354.357 240.348C353.784 239.287 353.01 238.485 352.035 237.94C351.061 237.367 350.014 237.08 348.896 237.08C347.778 237.08 346.746 237.352 345.8 237.897C344.854 238.442 344.08 239.244 343.478 240.305C342.905 241.337 342.618 242.57 342.618 244.003C342.618 245.436 342.905 246.698 343.478 247.787C344.08 248.848 344.854 249.665 345.8 250.238C346.775 250.811 347.807 251.098 348.896 251.098C350.014 251.098 351.061 250.826 352.035 250.281C353.01 249.708 353.784 248.905 354.357 247.873C354.931 246.812 355.217 245.551 355.217 244.089ZM375.803 256.387C373.51 256.387 371.446 255.885 369.611 254.882C367.776 253.85 366.329 252.402 365.268 250.539C364.236 248.676 363.72 246.526 363.72 244.089C363.72 241.652 364.25 239.502 365.311 237.639C366.4 235.776 367.877 234.342 369.74 233.339C371.603 232.307 373.682 231.791 375.975 231.791C378.268 231.791 380.347 232.307 382.21 233.339C384.073 234.342 385.535 235.776 386.596 237.639C387.685 239.502 388.23 241.652 388.23 244.089C388.23 246.526 387.671 248.676 386.553 250.539C385.464 252.402 383.973 253.85 382.081 254.882C380.218 255.885 378.125 256.387 375.803 256.387ZM375.803 251.141C376.892 251.141 377.91 250.883 378.856 250.367C379.831 249.822 380.605 249.02 381.178 247.959C381.751 246.898 382.038 245.608 382.038 244.089C382.038 241.824 381.436 240.09 380.232 238.886C379.057 237.653 377.609 237.037 375.889 237.037C374.169 237.037 372.721 237.653 371.546 238.886C370.399 240.09 369.826 241.824 369.826 244.089C369.826 246.354 370.385 248.102 371.503 249.335C372.65 250.539 374.083 251.141 375.803 251.141Z" fill="#0005B2"/>
<path d="M380.987 206.845V214.37H391.092V219.143H380.987V227.098H392.382V232H374.967V201.943H392.382V206.845H380.987ZM405.249 207.791C407.026 207.791 408.588 208.149 409.936 208.866C411.283 209.554 412.344 210.457 413.118 211.575V208.178H419.181V232.172C419.181 234.379 418.736 236.343 417.848 238.063C416.959 239.812 415.626 241.188 413.849 242.191C412.071 243.223 409.921 243.739 407.399 243.739C404.016 243.739 401.235 242.951 399.057 241.374C396.907 239.797 395.688 237.647 395.402 234.924H401.379C401.694 236.013 402.368 236.873 403.4 237.504C404.46 238.163 405.736 238.493 407.227 238.493C408.975 238.493 410.394 237.963 411.484 236.902C412.573 235.87 413.118 234.293 413.118 232.172V228.474C412.344 229.592 411.269 230.524 409.893 231.269C408.545 232.014 406.997 232.387 405.249 232.387C403.242 232.387 401.407 231.871 399.745 230.839C398.082 229.807 396.763 228.359 395.789 226.496C394.843 224.604 394.37 222.44 394.37 220.003C394.37 217.595 394.843 215.459 395.789 213.596C396.763 211.733 398.068 210.299 399.702 209.296C401.364 208.293 403.213 207.791 405.249 207.791ZM413.118 220.089C413.118 218.627 412.831 217.38 412.258 216.348C411.684 215.287 410.91 214.485 409.936 213.94C408.961 213.367 407.915 213.08 406.797 213.08C405.679 213.08 404.647 213.352 403.701 213.897C402.755 214.442 401.981 215.244 401.379 216.305C400.805 217.337 400.519 218.57 400.519 220.003C400.519 221.436 400.805 222.698 401.379 223.787C401.981 224.848 402.755 225.665 403.701 226.238C404.675 226.811 405.707 227.098 406.797 227.098C407.915 227.098 408.961 226.826 409.936 226.281C410.91 225.708 411.684 224.905 412.258 223.873C412.831 222.812 413.118 221.551 413.118 220.089ZM445.915 208.178L431.166 243.266H424.759L429.919 231.398L420.373 208.178H427.124L433.273 224.819L439.508 208.178H445.915ZM453.245 211.618C454.019 210.529 455.08 209.626 456.427 208.909C457.803 208.164 459.366 207.791 461.114 207.791C463.15 207.791 464.984 208.293 466.618 209.296C468.281 210.299 469.585 211.733 470.531 213.596C471.506 215.431 471.993 217.566 471.993 220.003C471.993 222.44 471.506 224.604 470.531 226.496C469.585 228.359 468.281 229.807 466.618 230.839C464.984 231.871 463.15 232.387 461.114 232.387C459.366 232.387 457.818 232.029 456.47 231.312C455.152 230.595 454.077 229.692 453.245 228.603V243.352H447.225V208.178H453.245V211.618ZM465.844 220.003C465.844 218.57 465.543 217.337 464.941 216.305C464.368 215.244 463.594 214.442 462.619 213.897C461.673 213.352 460.641 213.08 459.523 213.08C458.434 213.08 457.402 213.367 456.427 213.94C455.481 214.485 454.707 215.287 454.105 216.348C453.532 217.409 453.245 218.656 453.245 220.089C453.245 221.522 453.532 222.769 454.105 223.83C454.707 224.891 455.481 225.708 456.427 226.281C457.402 226.826 458.434 227.098 459.523 227.098C460.641 227.098 461.673 226.811 462.619 226.238C463.594 225.665 464.368 224.848 464.941 223.787C465.543 222.726 465.844 221.465 465.844 220.003ZM481.442 213.123V224.647C481.442 225.45 481.628 226.037 482.001 226.41C482.402 226.754 483.062 226.926 483.979 226.926H486.774V232H482.99C477.916 232 475.379 229.535 475.379 224.604V213.123H472.541V208.178H475.379V202.287H481.442V208.178H486.774V213.123H481.442Z" fill="#0005B2"/>
<path d="M374.456 18.344V49.808C374.456 54.0133 375.368 57.18 377.192 59.308C379.067 61.3853 381.752 62.424 385.248 62.424C388.693 62.424 391.328 61.3853 393.152 59.308C395.027 57.18 395.964 54.0133 395.964 49.808V18.344H406.604V49.808C406.604 54.7733 405.667 58.9787 403.792 62.424C401.968 65.8187 399.409 68.352 396.116 70.024C392.873 71.696 389.175 72.532 385.02 72.532C378.585 72.532 373.443 70.6067 369.592 66.756C365.741 62.9053 363.816 57.256 363.816 49.808V18.344H374.456ZM437.203 72L423.295 53.608V72H412.579V15.76H423.295V47.376L437.127 29.896H449.819L432.111 50.872L450.275 72H437.203ZM462.773 37.952C464.344 35.2667 466.421 33.164 469.005 31.644C471.589 30.0733 474.477 29.288 477.669 29.288V40.764H474.553C466.7 40.764 462.773 44.412 462.773 51.708V72H452.057V29.896H462.773V37.952ZM496.672 29.364C500.219 29.364 503.259 30.2 505.792 31.872C508.326 33.544 510.124 35.7987 511.188 38.636V29.896H521.828V72H511.188V63.184C510.124 66.0213 508.326 68.3013 505.792 70.024C503.259 71.696 500.219 72.532 496.672 72.532C493.126 72.532 489.934 71.6707 487.096 69.948C484.259 68.2253 482.03 65.7427 480.408 62.5C478.838 59.2067 478.052 55.356 478.052 50.948C478.052 46.54 478.838 42.7147 480.408 39.472C482.03 36.1787 484.259 33.6707 487.096 31.948C489.934 30.2253 493.126 29.364 496.672 29.364ZM500.016 38.712C496.672 38.712 493.987 39.8013 491.96 41.98C489.934 44.1587 488.92 47.148 488.92 50.948C488.92 54.748 489.934 57.7373 491.96 59.916C493.987 62.044 496.672 63.108 500.016 63.108C503.259 63.108 505.919 62.0187 507.996 59.84C510.124 57.6107 511.188 54.6467 511.188 50.948C511.188 47.1987 510.124 44.2347 507.996 42.056C505.919 39.8267 503.259 38.712 500.016 38.712ZM526.904 17.812C526.904 16.0893 527.512 14.696 528.728 13.632C529.944 12.5173 531.54 11.96 533.516 11.96C535.492 11.96 537.088 12.5173 538.304 13.632C539.52 14.696 540.128 16.0893 540.128 17.812C540.128 19.484 539.52 20.8773 538.304 21.992C537.088 23.056 535.492 23.588 533.516 23.588C531.54 23.588 529.944 23.056 528.728 21.992C527.512 20.8773 526.904 19.484 526.904 17.812ZM538.836 29.896V72H528.12V29.896H538.836ZM570.19 29.288C575.054 29.288 578.93 30.884 581.818 34.076C584.706 37.268 586.15 41.752 586.15 47.528V72H575.51V48.744C575.51 45.4 574.649 42.816 572.926 40.992C571.203 39.1173 568.847 38.18 565.858 38.18C562.818 38.18 560.386 39.168 558.562 41.144C556.738 43.12 555.826 45.9573 555.826 49.656V72H545.11V29.896H555.826V38.332C556.941 35.4947 558.765 33.2907 561.298 31.72C563.882 30.0987 566.846 29.288 570.19 29.288ZM631.755 49.352C631.755 50.416 631.628 51.632 631.375 53H600.519C600.671 56.7493 601.684 59.5107 603.559 61.284C605.433 63.0573 607.764 63.944 610.551 63.944C613.033 63.944 615.085 63.336 616.707 62.12C618.379 60.904 619.443 59.2573 619.899 57.18H631.223C630.665 60.1187 629.475 62.7533 627.651 65.084C625.827 67.4147 623.471 69.2387 620.583 70.556C617.745 71.8733 614.579 72.532 611.083 72.532C606.979 72.532 603.331 71.6707 600.139 69.948C596.947 68.1747 594.464 65.6667 592.691 62.424C590.917 59.1813 590.031 55.356 590.031 50.948C590.031 46.54 590.917 42.7147 592.691 39.472C594.464 36.1787 596.947 33.6707 600.139 31.948C603.331 30.2253 606.979 29.364 611.083 29.364C615.237 29.364 618.86 30.2253 621.951 31.948C625.092 33.6707 627.499 36.052 629.171 39.092C630.893 42.0813 631.755 45.5013 631.755 49.352ZM620.963 48.288C621.115 44.8427 620.203 42.2333 618.227 40.46C616.301 38.6867 613.92 37.8 611.083 37.8C608.195 37.8 605.763 38.6867 603.787 40.46C601.811 42.2333 600.721 44.8427 600.519 48.288H620.963Z" fill="#0005B2"/>
<path d="M309.836 54.792H327.848V63H299.12V9.344H309.836V54.792ZM347.298 20.364C350.844 20.364 353.884 21.2 356.418 22.872C358.951 24.544 360.75 26.7987 361.814 29.636V20.896H372.454V63H361.814V54.184C360.75 57.0213 358.951 59.3013 356.418 61.024C353.884 62.696 350.844 63.532 347.298 63.532C343.751 63.532 340.559 62.6707 337.722 60.948C334.884 59.2253 332.655 56.7427 331.034 53.5C329.463 50.2067 328.678 46.356 328.678 41.948C328.678 37.54 329.463 33.7147 331.034 30.472C332.655 27.1787 334.884 24.6707 337.722 22.948C340.559 21.2253 343.751 20.364 347.298 20.364ZM350.642 29.712C347.298 29.712 344.612 30.8013 342.586 32.98C340.559 35.1587 339.546 38.148 339.546 41.948C339.546 45.748 340.559 48.7373 342.586 50.916C344.612 53.044 347.298 54.108 350.642 54.108C353.884 54.108 356.544 53.0187 358.622 50.84C360.75 48.6107 361.814 45.6467 361.814 41.948C361.814 38.1987 360.75 35.2347 358.622 33.056C356.544 30.8267 353.884 29.712 350.642 29.712ZM401.241 53.804V63H395.617C390.905 63 387.282 61.86 384.749 59.58C382.266 57.3 381.025 53.5 381.025 48.18V29.94H375.173V20.896H381.025V10.484H391.741V20.896H401.165V29.94H391.741V48.332C391.741 50.3587 392.146 51.7773 392.957 52.588C393.768 53.3987 395.136 53.804 397.061 53.804H401.241ZM423.848 52.284L434.488 20.896H445.888L430.308 63H417.236L401.656 20.896H413.132L423.848 52.284ZM447.208 8.812C447.208 7.08933 447.816 5.696 449.032 4.632C450.248 3.51733 451.844 2.96 453.82 2.96C455.796 2.96 457.392 3.51733 458.608 4.632C459.824 5.696 460.432 7.08933 460.432 8.812C460.432 10.484 459.824 11.8773 458.608 12.992C457.392 14.056 455.796 14.588 453.82 14.588C451.844 14.588 450.248 14.056 449.032 12.992C447.816 11.8773 447.208 10.484 447.208 8.812ZM459.14 20.896V63H448.424V20.896H459.14ZM481.907 20.364C485.453 20.364 488.493 21.2 491.027 22.872C493.56 24.544 495.359 26.7987 496.423 29.636V20.896H507.063V63H496.423V54.184C495.359 57.0213 493.56 59.3013 491.027 61.024C488.493 62.696 485.453 63.532 481.907 63.532C478.36 63.532 475.168 62.6707 472.331 60.948C469.493 59.2253 467.264 56.7427 465.643 53.5C464.072 50.2067 463.287 46.356 463.287 41.948C463.287 37.54 464.072 33.7147 465.643 30.472C467.264 27.1787 469.493 24.6707 472.331 22.948C475.168 21.2253 478.36 20.364 481.907 20.364ZM485.251 29.712C481.907 29.712 479.221 30.8013 477.195 32.98C475.168 35.1587 474.155 38.148 474.155 41.948C474.155 45.748 475.168 48.7373 477.195 50.916C479.221 53.044 481.907 54.108 485.251 54.108C488.493 54.108 491.153 53.0187 493.231 50.84C495.359 48.6107 496.423 45.6467 496.423 41.948C496.423 38.1987 495.359 35.2347 493.231 33.056C491.153 30.8267 488.493 29.712 485.251 29.712Z" fill="#0005B2"/>
<path d="M321.568 77H310.852L286.836 40.52V77H276.12V23.344H286.836L310.852 60.128V23.344H321.568V77ZM367.441 54.352C367.441 55.416 367.314 56.632 367.061 58H336.205C336.357 61.7493 337.37 64.5107 339.245 66.284C341.119 68.0573 343.45 68.944 346.237 68.944C348.719 68.944 350.771 68.336 352.393 67.12C354.065 65.904 355.129 64.2573 355.585 62.18H366.909C366.351 65.1187 365.161 67.7533 363.337 70.084C361.513 72.4147 359.157 74.2387 356.269 75.556C353.431 76.8733 350.265 77.532 346.769 77.532C342.665 77.532 339.017 76.6707 335.825 74.948C332.633 73.1747 330.15 70.6667 328.377 67.424C326.603 64.1813 325.717 60.356 325.717 55.948C325.717 51.54 326.603 47.7147 328.377 44.472C330.15 41.1787 332.633 38.6707 335.825 36.948C339.017 35.2253 342.665 34.364 346.769 34.364C350.923 34.364 354.546 35.2253 357.637 36.948C360.778 38.6707 363.185 41.052 364.857 44.092C366.579 47.0813 367.441 50.5013 367.441 54.352ZM356.649 53.288C356.801 49.8427 355.889 47.2333 353.913 45.46C351.987 43.6867 349.606 42.8 346.769 42.8C343.881 42.8 341.449 43.6867 339.473 45.46C337.497 47.2333 336.407 49.8427 336.205 53.288H356.649ZM394.124 67.804V77H388.5C383.788 77 380.165 75.86 377.632 73.58C375.149 71.3 373.908 67.5 373.908 62.18V43.94H368.056V34.896H373.908V24.484H384.624V34.896H394.048V43.94H384.624V62.332C384.624 64.3587 385.029 65.7773 385.84 66.588C386.65 67.3987 388.018 67.804 389.944 67.804H394.124ZM423.495 34.288C428.359 34.288 432.235 35.884 435.123 39.076C438.011 42.268 439.455 46.752 439.455 52.528V77H428.815V53.744C428.815 50.4 427.953 47.816 426.231 45.992C424.508 44.1173 422.152 43.18 419.163 43.18C416.123 43.18 413.691 44.168 411.867 46.144C410.043 48.12 409.131 50.9573 409.131 54.656V77H398.415V20.76H409.131V43.332C410.245 40.4947 412.069 38.2907 414.603 36.72C417.187 35.0987 420.151 34.288 423.495 34.288ZM485.06 54.352C485.06 55.416 484.933 56.632 484.68 58H453.824C453.976 61.7493 454.989 64.5107 456.864 66.284C458.738 68.0573 461.069 68.944 463.856 68.944C466.338 68.944 468.39 68.336 470.012 67.12C471.684 65.904 472.748 64.2573 473.204 62.18H484.528C483.97 65.1187 482.78 67.7533 480.956 70.084C479.132 72.4147 476.776 74.2387 473.888 75.556C471.05 76.8733 467.884 77.532 464.388 77.532C460.284 77.532 456.636 76.6707 453.444 74.948C450.252 73.1747 447.769 70.6667 445.996 67.424C444.222 64.1813 443.336 60.356 443.336 55.948C443.336 51.54 444.222 47.7147 445.996 44.472C447.769 41.1787 450.252 38.6707 453.444 36.948C456.636 35.2253 460.284 34.364 464.388 34.364C468.542 34.364 472.165 35.2253 475.256 36.948C478.397 38.6707 480.804 41.052 482.476 44.092C484.198 47.0813 485.06 50.5013 485.06 54.352ZM474.268 53.288C474.42 49.8427 473.508 47.2333 471.532 45.46C469.606 43.6867 467.225 42.8 464.388 42.8C461.5 42.8 459.068 43.6867 457.092 45.46C455.116 47.2333 454.026 49.8427 453.824 53.288H474.268ZM499.963 42.952C501.533 40.2667 503.611 38.164 506.195 36.644C508.779 35.0733 511.667 34.288 514.859 34.288V45.764H511.743C503.889 45.764 499.963 49.412 499.963 56.708V77H489.247V34.896H499.963V42.952ZM528.086 20.76V77H517.37V20.76H528.086ZM550.852 34.364C554.398 34.364 557.438 35.2 559.972 36.872C562.505 38.544 564.304 40.7987 565.368 43.636V34.896H576.008V77H565.368V68.184C564.304 71.0213 562.505 73.3013 559.972 75.024C557.438 76.696 554.398 77.532 550.852 77.532C547.305 77.532 544.113 76.6707 541.276 74.948C538.438 73.2253 536.209 70.7427 534.588 67.5C533.017 64.2067 532.232 60.356 532.232 55.948C532.232 51.54 533.017 47.7147 534.588 44.472C536.209 41.1787 538.438 38.6707 541.276 36.948C544.113 35.2253 547.305 34.364 550.852 34.364ZM554.196 43.712C550.852 43.712 548.166 44.8013 546.14 46.98C544.113 49.1587 543.1 52.148 543.1 55.948C543.1 59.748 544.113 62.7373 546.14 64.916C548.166 67.044 550.852 68.108 554.196 68.108C557.438 68.108 560.098 67.0187 562.176 64.84C564.304 62.6107 565.368 59.6467 565.368 55.948C565.368 52.1987 564.304 49.2347 562.176 47.056C560.098 44.8267 557.438 43.712 554.196 43.712ZM607.379 34.288C612.243 34.288 616.119 35.884 619.007 39.076C621.895 42.268 623.339 46.752 623.339 52.528V77H612.699V53.744C612.699 50.4 611.838 47.816 610.115 45.992C608.393 44.1173 606.037 43.18 603.047 43.18C600.007 43.18 597.575 44.168 595.751 46.144C593.927 48.12 593.015 50.9573 593.015 54.656V77H582.299V34.896H593.015V43.332C594.13 40.4947 595.954 38.2907 598.487 36.72C601.071 35.0987 604.035 34.288 607.379 34.288ZM645.84 34.364C649.387 34.364 652.401 35.2 654.884 36.872C657.417 38.544 659.241 40.7987 660.356 43.636V20.76H670.996V77H660.356V68.184C659.241 71.0213 657.417 73.3013 654.884 75.024C652.401 76.696 649.387 77.532 645.84 77.532C642.293 77.532 639.101 76.6707 636.264 74.948C633.427 73.2253 631.197 70.7427 629.576 67.5C628.005 64.2067 627.22 60.356 627.22 55.948C627.22 51.54 628.005 47.7147 629.576 44.472C631.197 41.1787 633.427 38.6707 636.264 36.948C639.101 35.2253 642.293 34.364 645.84 34.364ZM649.184 43.712C645.84 43.712 643.155 44.8013 641.128 46.98C639.101 49.1587 638.088 52.148 638.088 55.948C638.088 59.748 639.101 62.7373 641.128 64.916C643.155 67.044 645.84 68.108 649.184 68.108C652.427 68.108 655.087 67.0187 657.164 64.84C659.292 62.6107 660.356 59.6467 660.356 55.948C660.356 52.1987 659.292 49.2347 657.164 47.056C655.087 44.8267 652.427 43.712 649.184 43.712ZM691.803 34.364C696.921 34.364 701.025 35.656 704.115 38.24C707.206 40.824 709.131 44.2693 709.891 48.576H699.859C699.454 46.5493 698.542 44.928 697.123 43.712C695.705 42.496 693.855 41.888 691.575 41.888C689.751 41.888 688.333 42.3187 687.319 43.18C686.306 44.0413 685.799 45.2067 685.799 46.676C685.799 47.8413 686.205 48.7787 687.015 49.488C687.826 50.1973 688.839 50.7547 690.055 51.16C691.271 51.5653 693.019 52.0467 695.299 52.604C698.491 53.3133 701.075 54.0733 703.051 54.884C705.078 55.644 706.801 56.8853 708.219 58.608C709.689 60.28 710.423 62.56 710.423 65.448C710.423 69.0453 709.005 71.9587 706.167 74.188C703.381 76.4173 699.606 77.532 694.843 77.532C689.371 77.532 684.989 76.316 681.695 73.884C678.402 71.4013 676.401 67.88 675.691 63.32H685.951C686.205 65.3973 687.117 67.044 688.687 68.26C690.258 69.4253 692.31 70.008 694.843 70.008C696.667 70.008 698.061 69.5773 699.023 68.716C699.986 67.804 700.467 66.6387 700.467 65.22C700.467 64.004 700.037 63.016 699.175 62.256C698.365 61.496 697.326 60.9133 696.059 60.508C694.843 60.1027 693.095 59.6213 690.815 59.064C687.674 58.3547 685.115 57.6453 683.139 56.936C681.214 56.176 679.542 54.9853 678.123 53.364C676.755 51.7427 676.071 49.5133 676.071 46.676C676.071 43.028 677.465 40.064 680.251 37.784C683.038 35.504 686.889 34.364 691.803 34.364Z" fill="#0005B2"/>
<path d="M309.836 72.344V126H299.12V72.344H309.836ZM338.606 116.804V126H332.982C328.27 126 324.648 124.86 322.114 122.58C319.632 120.3 318.39 116.5 318.39 111.18V92.94H312.538V83.896H318.39V73.484H329.106V83.896H338.53V92.94H329.106V111.332C329.106 113.359 329.512 114.777 330.322 115.588C331.133 116.399 332.501 116.804 334.426 116.804H338.606ZM359.389 83.364C362.936 83.364 365.976 84.2 368.509 85.872C371.043 87.544 372.841 89.7987 373.905 92.636V83.896H384.545V126H373.905V117.184C372.841 120.021 371.043 122.301 368.509 124.024C365.976 125.696 362.936 126.532 359.389 126.532C355.843 126.532 352.651 125.671 349.813 123.948C346.976 122.225 344.747 119.743 343.125 116.5C341.555 113.207 340.769 109.356 340.769 104.948C340.769 100.54 341.555 96.7147 343.125 93.472C344.747 90.1787 346.976 87.6707 349.813 85.948C352.651 84.2253 355.843 83.364 359.389 83.364ZM362.733 92.712C359.389 92.712 356.704 93.8013 354.677 95.98C352.651 98.1587 351.637 101.148 351.637 104.948C351.637 108.748 352.651 111.737 354.677 113.916C356.704 116.044 359.389 117.108 362.733 117.108C365.976 117.108 368.636 116.019 370.713 113.84C372.841 111.611 373.905 108.647 373.905 104.948C373.905 101.199 372.841 98.2347 370.713 96.056C368.636 93.8267 365.976 92.712 362.733 92.712ZM401.553 69.76V126H390.837V69.76H401.553ZM415.047 83.896L426.523 112.472L437.163 83.896H448.943L423.179 146.064H411.323L420.823 124.784L403.115 83.896H415.047Z" fill="#0005B2"/>
<path d="M367.6 62.952V71.54H353.464V116H342.824V71.54H328.688V62.952H367.6ZM411.691 73.896V116H400.975V110.68C399.607 112.504 397.809 113.948 395.579 115.012C393.401 116.025 391.019 116.532 388.435 116.532C385.142 116.532 382.229 115.848 379.695 114.48C377.162 113.061 375.161 111.009 373.691 108.324C372.273 105.588 371.563 102.345 371.563 98.596V73.896H382.203V97.076C382.203 100.42 383.039 103.004 384.711 104.828C386.383 106.601 388.663 107.488 391.551 107.488C394.49 107.488 396.795 106.601 398.467 104.828C400.139 103.004 400.975 100.42 400.975 97.076V73.896H411.691ZM429.409 80.432C430.777 78.2027 432.551 76.4547 434.729 75.188C436.959 73.9213 439.492 73.288 442.329 73.288V84.46H439.517C436.173 84.46 433.64 85.2453 431.917 86.816C430.245 88.3867 429.409 91.1227 429.409 95.024V116H418.769V73.896H429.409V80.432ZM471.004 116L456.716 98.064V116H446.076V59.76H456.716V91.756L470.852 73.896H484.684L466.14 95.024L484.836 116H471.004ZM526.179 94.036C526.179 95.556 526.078 96.924 525.875 98.14H495.095C495.348 101.18 496.412 103.561 498.287 105.284C500.162 107.007 502.467 107.868 505.203 107.868C509.155 107.868 511.967 106.171 513.639 102.776H525.115C523.899 106.829 521.568 110.173 518.123 112.808C514.678 115.392 510.447 116.684 505.431 116.684C501.378 116.684 497.73 115.797 494.487 114.024C491.295 112.2 488.787 109.641 486.963 106.348C485.19 103.055 484.303 99.2547 484.303 94.948C484.303 90.5907 485.19 86.7653 486.963 83.472C488.736 80.1787 491.219 77.6453 494.411 75.872C497.603 74.0987 501.276 73.212 505.431 73.212C509.434 73.212 513.006 74.0733 516.147 75.796C519.339 77.5187 521.796 79.976 523.519 83.168C525.292 86.3093 526.179 89.932 526.179 94.036ZM515.159 90.996C515.108 88.26 514.12 86.0813 512.195 84.46C510.27 82.788 507.914 81.952 505.127 81.952C502.492 81.952 500.263 82.7627 498.439 84.384C496.666 85.9547 495.576 88.1587 495.171 90.996H515.159ZM570.805 73.896L544.737 135.912H533.413L542.533 114.936L525.661 73.896H537.593L548.461 103.308L559.481 73.896H570.805Z" fill="#0005B2"/>
<path d="M338.088 98L325.548 77.1H320.836V98H310.12V44.344H330.564C336.796 44.344 341.533 45.864 344.776 48.904C348.069 51.944 349.716 55.9467 349.716 60.912C349.716 64.9653 348.576 68.36 346.296 71.096C344.067 73.832 340.824 75.656 336.568 76.568L349.944 98H338.088ZM320.836 69.728H329.652C335.783 69.728 338.848 67.0173 338.848 61.596C338.848 59.012 338.088 57.0107 336.568 55.592C335.099 54.1227 332.793 53.388 329.652 53.388H320.836V69.728ZM372.988 55.364C377.092 55.364 380.765 56.2253 384.008 57.948C387.301 59.6707 389.885 62.1787 391.76 65.472C393.635 68.7147 394.572 72.54 394.572 76.948C394.572 81.356 393.635 85.1813 391.76 88.424C389.885 91.6667 387.301 94.1747 384.008 95.948C380.765 97.6707 377.092 98.532 372.988 98.532C368.884 98.532 365.185 97.6707 361.892 95.948C358.649 94.1747 356.091 91.6667 354.216 88.424C352.341 85.1813 351.404 81.356 351.404 76.948C351.404 72.54 352.341 68.7147 354.216 65.472C356.091 62.1787 358.649 59.6707 361.892 57.948C365.185 56.2253 368.884 55.364 372.988 55.364ZM372.988 64.636C369.999 64.636 367.465 65.7 365.388 67.828C363.311 69.9053 362.272 72.9453 362.272 76.948C362.272 80.9507 363.311 84.016 365.388 86.144C367.465 88.2213 369.999 89.26 372.988 89.26C375.977 89.26 378.511 88.2213 380.588 86.144C382.665 84.016 383.704 80.9507 383.704 76.948C383.704 72.9453 382.665 69.9053 380.588 67.828C378.511 65.7 375.977 64.636 372.988 64.636ZM452.305 55.288C457.423 55.288 461.451 56.884 464.389 60.076C467.379 63.2173 468.873 67.7013 468.873 73.528V98H458.233V74.744C458.233 71.5013 457.397 69.0187 455.725 67.296C454.104 65.5227 451.849 64.636 448.961 64.636C445.972 64.636 443.591 65.5733 441.817 67.448C440.044 69.3227 439.157 72.0587 439.157 75.656V98H428.517V74.744C428.517 71.5013 427.681 69.0187 426.009 67.296C424.388 65.5227 422.133 64.636 419.245 64.636C416.256 64.636 413.875 65.5733 412.101 67.448C410.328 69.3227 409.441 72.0587 409.441 75.656V98H398.725V55.896H409.441V63.876C410.556 61.14 412.304 59.0373 414.685 57.568C417.117 56.048 419.929 55.288 423.121 55.288C426.516 55.288 429.455 56.0987 431.937 57.72C434.471 59.3413 436.371 61.672 437.637 64.712C438.955 61.824 440.905 59.544 443.489 57.872C446.124 56.1493 449.063 55.288 452.305 55.288ZM491.36 55.364C494.907 55.364 497.947 56.2 500.48 57.872C503.013 59.544 504.812 61.7987 505.876 64.636V55.896H516.516V98H505.876V89.184C504.812 92.0213 503.013 94.3013 500.48 96.024C497.947 97.696 494.907 98.532 491.36 98.532C487.813 98.532 484.621 97.6707 481.784 95.948C478.947 94.2253 476.717 91.7427 475.096 88.5C473.525 85.2067 472.74 81.356 472.74 76.948C472.74 72.54 473.525 68.7147 475.096 65.472C476.717 62.1787 478.947 59.6707 481.784 57.948C484.621 56.2253 487.813 55.364 491.36 55.364ZM494.704 64.712C491.36 64.712 488.675 65.8013 486.648 67.98C484.621 70.1587 483.608 73.148 483.608 76.948C483.608 80.748 484.621 83.7373 486.648 85.916C488.675 88.044 491.36 89.108 494.704 89.108C497.947 89.108 500.607 88.0187 502.684 85.84C504.812 83.6107 505.876 80.6467 505.876 76.948C505.876 73.1987 504.812 70.2347 502.684 68.056C500.607 65.8267 497.947 64.712 494.704 64.712ZM547.887 55.288C552.751 55.288 556.627 56.884 559.515 60.076C562.403 63.268 563.847 67.752 563.847 73.528V98H553.207V74.744C553.207 71.4 552.346 68.816 550.623 66.992C548.901 65.1173 546.545 64.18 543.555 64.18C540.515 64.18 538.083 65.168 536.259 67.144C534.435 69.12 533.523 71.9573 533.523 75.656V98H522.807V55.896H533.523V64.332C534.638 61.4947 536.462 59.2907 538.995 57.72C541.579 56.0987 544.543 55.288 547.887 55.288ZM568.64 43.812C568.64 42.0893 569.248 40.696 570.464 39.632C571.68 38.5173 573.276 37.96 575.252 37.96C577.228 37.96 578.824 38.5173 580.04 39.632C581.256 40.696 581.864 42.0893 581.864 43.812C581.864 45.484 581.256 46.8773 580.04 47.992C578.824 49.056 577.228 49.588 575.252 49.588C573.276 49.588 571.68 49.056 570.464 47.992C569.248 46.8773 568.64 45.484 568.64 43.812ZM580.572 55.896V98H569.856V55.896H580.572ZM603.338 55.364C606.885 55.364 609.925 56.2 612.458 57.872C614.992 59.544 616.79 61.7987 617.854 64.636V55.896H628.494V98H617.854V89.184C616.79 92.0213 614.992 94.3013 612.458 96.024C609.925 97.696 606.885 98.532 603.338 98.532C599.792 98.532 596.6 97.6707 593.762 95.948C590.925 94.2253 588.696 91.7427 587.074 88.5C585.504 85.2067 584.718 81.356 584.718 76.948C584.718 72.54 585.504 68.7147 587.074 65.472C588.696 62.1787 590.925 59.6707 593.762 57.948C596.6 56.2253 599.792 55.364 603.338 55.364ZM606.682 64.712C603.338 64.712 600.653 65.8013 598.626 67.98C596.6 70.1587 595.586 73.148 595.586 76.948C595.586 80.748 596.6 83.7373 598.626 85.916C600.653 88.044 603.338 89.108 606.682 89.108C609.925 89.108 612.585 88.0187 614.662 85.84C616.79 83.6107 617.854 80.6467 617.854 76.948C617.854 73.1987 616.79 70.2347 614.662 68.056C612.585 65.8267 609.925 64.712 606.682 64.712Z" fill="#0005B2"/>
<path d="M364.064 61.336C367.307 61.9947 369.891 63.54 371.816 65.972C373.792 68.3533 374.78 71.1653 374.78 74.408C374.78 78.9173 373.26 82.4893 370.22 85.124C367.231 87.708 362.873 89 357.148 89H334.12V35.344H356.692C362.113 35.344 366.268 36.5347 369.156 38.916C372.095 41.2973 373.564 44.6413 373.564 48.948C373.564 52.292 372.677 55.028 370.904 57.156C369.181 59.284 366.901 60.6773 364.064 61.336ZM344.836 57.84H354.488C357.173 57.84 359.2 57.2573 360.568 56.092C361.987 54.876 362.696 53.1533 362.696 50.924C362.696 48.6947 362.012 46.972 360.644 45.756C359.276 44.54 357.173 43.932 354.336 43.932H344.836V57.84ZM355.02 80.26C357.857 80.26 360.036 79.652 361.556 78.436C363.076 77.1693 363.836 75.3453 363.836 72.964C363.836 70.5827 363.051 68.7587 361.48 67.492C359.96 66.1747 357.781 65.516 354.944 65.516H344.836V80.26H355.02ZM419.148 46.896V89H408.432V80.488C407.317 83.3253 405.468 85.5547 402.884 87.176C400.351 88.7467 397.412 89.532 394.068 89.532C389.204 89.532 385.328 87.936 382.44 84.744C379.552 81.552 378.108 77.0933 378.108 71.368V46.896H388.748V70.152C388.748 73.496 389.609 76.1053 391.332 77.98C393.055 79.804 395.385 80.716 398.324 80.716C401.415 80.716 403.872 79.728 405.696 77.752C407.52 75.776 408.432 72.9387 408.432 69.24V46.896H419.148ZM436.188 32.76V89H425.472V32.76H436.188ZM458.954 46.364C462.5 46.364 465.54 47.2 468.074 48.872C470.607 50.544 472.406 52.7987 473.47 55.636V46.896H484.11V89.152C484.11 93.0533 483.324 96.5493 481.754 99.64C480.234 102.781 477.928 105.239 474.838 107.012C471.798 108.785 468.099 109.672 463.742 109.672C457.662 109.672 452.747 108.228 448.998 105.34C445.248 102.452 442.968 98.5253 442.158 93.56H452.722C453.33 95.688 454.495 97.3347 456.218 98.5C457.991 99.716 460.246 100.324 462.982 100.324C466.123 100.324 468.656 99.3867 470.582 97.512C472.507 95.688 473.47 92.9013 473.47 89.152V80.184C472.406 83.0213 470.607 85.3013 468.074 87.024C465.54 88.696 462.5 89.532 458.954 89.532C455.407 89.532 452.215 88.6707 449.378 86.948C446.54 85.2253 444.311 82.7427 442.69 79.5C441.119 76.2067 440.334 72.356 440.334 67.948C440.334 63.54 441.119 59.7147 442.69 56.472C444.311 53.1787 446.54 50.6707 449.378 48.948C452.215 47.2253 455.407 46.364 458.954 46.364ZM462.298 55.712C458.954 55.712 456.268 56.8013 454.242 58.98C452.215 61.1587 451.202 64.148 451.202 67.948C451.202 71.748 452.215 74.7373 454.242 76.916C456.268 79.044 458.954 80.108 462.298 80.108C465.54 80.108 468.2 79.0187 470.278 76.84C472.406 74.6107 473.47 71.6467 473.47 67.948C473.47 64.1987 472.406 61.2347 470.278 59.056C468.2 56.8267 465.54 55.712 462.298 55.712ZM506.893 46.364C510.44 46.364 513.48 47.2 516.013 48.872C518.546 50.544 520.345 52.7987 521.409 55.636V46.896H532.049V89H521.409V80.184C520.345 83.0213 518.546 85.3013 516.013 87.024C513.48 88.696 510.44 89.532 506.893 89.532C503.346 89.532 500.154 88.6707 497.317 86.948C494.48 85.2253 492.25 82.7427 490.629 79.5C489.058 76.2067 488.273 72.356 488.273 67.948C488.273 63.54 489.058 59.7147 490.629 56.472C492.25 53.1787 494.48 50.6707 497.317 48.948C500.154 47.2253 503.346 46.364 506.893 46.364ZM510.237 55.712C506.893 55.712 504.208 56.8013 502.181 58.98C500.154 61.1587 499.141 64.148 499.141 67.948C499.141 71.748 500.154 74.7373 502.181 76.916C504.208 79.044 506.893 80.108 510.237 80.108C513.48 80.108 516.14 79.0187 518.217 76.84C520.345 74.6107 521.409 71.6467 521.409 67.948C521.409 64.1987 520.345 61.2347 518.217 59.056C516.14 56.8267 513.48 55.712 510.237 55.712ZM549.056 54.952C550.627 52.2667 552.704 50.164 555.288 48.644C557.872 47.0733 560.76 46.288 563.952 46.288V57.764H560.836C552.983 57.764 549.056 61.412 549.056 68.708V89H538.34V46.896H549.056V54.952ZM565.247 34.812C565.247 33.0893 565.855 31.696 567.071 30.632C568.287 29.5173 569.883 28.96 571.859 28.96C573.835 28.96 575.431 29.5173 576.647 30.632C577.863 31.696 578.471 33.0893 578.471 34.812C578.471 36.484 577.863 37.8773 576.647 38.992C575.431 40.056 573.835 40.588 571.859 40.588C569.883 40.588 568.287 40.056 567.071 38.992C565.855 37.8773 565.247 36.484 565.247 34.812ZM577.179 46.896V89H566.463V46.896H577.179ZM599.946 46.364C603.492 46.364 606.532 47.2 609.066 48.872C611.599 50.544 613.398 52.7987 614.462 55.636V46.896H625.102V89H614.462V80.184C613.398 83.0213 611.599 85.3013 609.066 87.024C606.532 88.696 603.492 89.532 599.946 89.532C596.399 89.532 593.207 88.6707 590.37 86.948C587.532 85.2253 585.303 82.7427 583.682 79.5C582.111 76.2067 581.326 72.356 581.326 67.948C581.326 63.54 582.111 59.7147 583.682 56.472C585.303 53.1787 587.532 50.6707 590.37 48.948C593.207 47.2253 596.399 46.364 599.946 46.364ZM603.29 55.712C599.946 55.712 597.26 56.8013 595.234 58.98C593.207 61.1587 592.194 64.148 592.194 67.948C592.194 71.748 593.207 74.7373 595.234 76.916C597.26 79.044 599.946 80.108 603.29 80.108C606.532 80.108 609.192 79.0187 611.27 76.84C613.398 74.6107 614.462 71.6467 614.462 67.948C614.462 64.1987 613.398 61.2347 611.27 59.056C609.192 56.8267 606.532 55.712 603.29 55.712Z" fill="#0005B2"/>
<path d="M354.504 46.952V100H343.864V77.428H321.14V100H310.5V46.952H321.14V68.764H343.864V46.952H354.504ZM401.305 57.896V100H390.589V94.68C389.221 96.504 387.422 97.948 385.193 99.012C383.014 100.025 380.633 100.532 378.049 100.532C374.755 100.532 371.842 99.848 369.309 98.48C366.775 97.0613 364.774 95.0093 363.305 92.324C361.886 89.588 361.177 86.3453 361.177 82.596V57.896H371.817V81.076C371.817 84.42 372.653 87.004 374.325 88.828C375.997 90.6013 378.277 91.488 381.165 91.488C384.103 91.488 386.409 90.6013 388.081 88.828C389.753 87.004 390.589 84.42 390.589 81.076V57.896H401.305ZM431.715 57.288C436.731 57.288 440.784 58.884 443.875 62.076C446.965 65.2173 448.511 69.6253 448.511 75.3V100H437.871V76.744C437.871 73.4 437.035 70.8413 435.363 69.068C433.691 67.244 431.411 66.332 428.523 66.332C425.584 66.332 423.253 67.244 421.531 69.068C419.859 70.8413 419.023 73.4 419.023 76.744V100H408.383V57.896H419.023V63.14C420.441 61.316 422.24 59.8973 424.419 58.884C426.648 57.82 429.08 57.288 431.715 57.288ZM471.701 57.212C474.842 57.212 477.604 57.8453 479.985 59.112C482.366 60.328 484.241 61.924 485.609 63.9V57.896H496.325V100.304C496.325 104.205 495.54 107.676 493.969 110.716C492.398 113.807 490.042 116.239 486.901 118.012C483.76 119.836 479.96 120.748 475.501 120.748C469.522 120.748 464.608 119.355 460.757 116.568C456.957 113.781 454.804 109.981 454.297 105.168H464.861C465.418 107.093 466.609 108.613 468.433 109.728C470.308 110.893 472.562 111.476 475.197 111.476C478.288 111.476 480.796 110.539 482.721 108.664C484.646 106.84 485.609 104.053 485.609 100.304V93.768C484.241 95.744 482.341 97.3907 479.909 98.708C477.528 100.025 474.792 100.684 471.701 100.684C468.154 100.684 464.912 99.772 461.973 97.948C459.034 96.124 456.704 93.5653 454.981 90.272C453.309 86.928 452.473 83.1027 452.473 78.796C452.473 74.54 453.309 70.7653 454.981 67.472C456.704 64.1787 459.009 61.6453 461.897 59.872C464.836 58.0987 468.104 57.212 471.701 57.212ZM485.609 78.948C485.609 76.364 485.102 74.16 484.089 72.336C483.076 70.4613 481.708 69.0427 479.985 68.08C478.262 67.0667 476.413 66.56 474.437 66.56C472.461 66.56 470.637 67.0413 468.965 68.004C467.293 68.9667 465.925 70.3853 464.861 72.26C463.848 74.084 463.341 76.2627 463.341 78.796C463.341 81.3293 463.848 83.5587 464.861 85.484C465.925 87.3587 467.293 88.8027 468.965 89.816C470.688 90.8293 472.512 91.336 474.437 91.336C476.413 91.336 478.262 90.8547 479.985 89.892C481.708 88.8787 483.076 87.46 484.089 85.636C485.102 83.7613 485.609 81.532 485.609 78.948ZM500.561 78.796C500.561 74.54 501.397 70.7653 503.069 67.472C504.791 64.1787 507.097 61.6453 509.985 59.872C512.923 58.0987 516.191 57.212 519.789 57.212C522.93 57.212 525.666 57.8453 527.997 59.112C530.378 60.3787 532.278 61.9747 533.697 63.9V57.896H544.413V100H533.697V93.844C532.329 95.82 530.429 97.4667 527.997 98.784C525.615 100.051 522.854 100.684 519.713 100.684C516.166 100.684 512.923 99.772 509.985 97.948C507.097 96.124 504.791 93.5653 503.069 90.272C501.397 86.928 500.561 83.1027 500.561 78.796ZM533.697 78.948C533.697 76.364 533.19 74.16 532.177 72.336C531.163 70.4613 529.795 69.0427 528.073 68.08C526.35 67.0667 524.501 66.56 522.525 66.56C520.549 66.56 518.725 67.0413 517.053 68.004C515.381 68.9667 514.013 70.3853 512.949 72.26C511.935 74.084 511.429 76.2627 511.429 78.796C511.429 81.3293 511.935 83.5587 512.949 85.484C514.013 87.3587 515.381 88.8027 517.053 89.816C518.775 90.8293 520.599 91.336 522.525 91.336C524.501 91.336 526.35 90.8547 528.073 89.892C529.795 88.8787 531.163 87.46 532.177 85.636C533.19 83.7613 533.697 81.532 533.697 78.948ZM562.024 64.432C563.392 62.2027 565.166 60.4547 567.344 59.188C569.574 57.9213 572.107 57.288 574.944 57.288V68.46H572.132C568.788 68.46 566.255 69.2453 564.532 70.816C562.86 72.3867 562.024 75.1227 562.024 79.024V100H551.384V57.896H562.024V64.432ZM618.971 57.896L592.903 119.912H581.579L590.699 98.936L573.827 57.896H585.759L596.627 87.308L607.647 57.896H618.971Z" fill="#0005B2"/>
<path d="M376.184 52.368C376.184 55.2053 375.5 57.8653 374.132 60.348C372.815 62.8307 370.712 64.832 367.824 66.352C364.987 67.872 361.389 68.632 357.032 68.632H348.14V89H337.5V35.952H357.032C361.136 35.952 364.632 36.6613 367.52 38.08C370.408 39.4987 372.561 41.4493 373.98 43.932C375.449 46.4147 376.184 49.2267 376.184 52.368ZM356.576 60.044C359.515 60.044 361.693 59.3853 363.112 58.068C364.531 56.7 365.24 54.8 365.24 52.368C365.24 47.2 362.352 44.616 356.576 44.616H348.14V60.044H356.576ZM399.014 89.684C394.961 89.684 391.313 88.7973 388.07 87.024C384.828 85.2 382.269 82.6413 380.394 79.348C378.57 76.0547 377.658 72.2547 377.658 67.948C377.658 63.6413 378.596 59.8413 380.47 56.548C382.396 53.2547 385.005 50.7213 388.298 48.948C391.592 47.124 395.265 46.212 399.318 46.212C403.372 46.212 407.045 47.124 410.338 48.948C413.632 50.7213 416.216 53.2547 418.09 56.548C420.016 59.8413 420.978 63.6413 420.978 67.948C420.978 72.2547 419.99 76.0547 418.014 79.348C416.089 82.6413 413.454 85.2 410.11 87.024C406.817 88.7973 403.118 89.684 399.014 89.684ZM399.014 80.412C400.94 80.412 402.738 79.956 404.41 79.044C406.133 78.0813 407.501 76.6627 408.514 74.788C409.528 72.9133 410.034 70.6333 410.034 67.948C410.034 63.9453 408.97 60.88 406.842 58.752C404.765 56.5733 402.206 55.484 399.166 55.484C396.126 55.484 393.568 56.5733 391.49 58.752C389.464 60.88 388.45 63.9453 388.45 67.948C388.45 71.9507 389.438 75.0413 391.414 77.22C393.441 79.348 395.974 80.412 399.014 80.412ZM436.003 32.76V89H425.363V32.76H436.003ZM440.36 67.796C440.36 63.54 441.196 59.7653 442.868 56.472C444.59 53.1787 446.896 50.6453 449.784 48.872C452.722 47.0987 455.99 46.212 459.588 46.212C462.729 46.212 465.465 46.8453 467.796 48.112C470.177 49.3787 472.077 50.9747 473.496 52.9V46.896H484.212V89H473.496V82.844C472.128 84.82 470.228 86.4667 467.796 87.784C465.414 89.0507 462.653 89.684 459.512 89.684C455.965 89.684 452.722 88.772 449.784 86.948C446.896 85.124 444.59 82.5653 442.868 79.272C441.196 75.928 440.36 72.1027 440.36 67.796ZM473.496 67.948C473.496 65.364 472.989 63.16 471.976 61.336C470.962 59.4613 469.594 58.0427 467.872 57.08C466.149 56.0667 464.3 55.56 462.324 55.56C460.348 55.56 458.524 56.0413 456.852 57.004C455.18 57.9667 453.812 59.3853 452.748 61.26C451.734 63.084 451.228 65.2627 451.228 67.796C451.228 70.3293 451.734 72.5587 452.748 74.484C453.812 76.3587 455.18 77.8027 456.852 78.816C458.574 79.8293 460.398 80.336 462.324 80.336C464.3 80.336 466.149 79.8547 467.872 78.892C469.594 77.8787 470.962 76.46 471.976 74.636C472.989 72.7613 473.496 70.532 473.496 67.948ZM514.515 46.288C519.531 46.288 523.585 47.884 526.675 51.076C529.766 54.2173 531.311 58.6253 531.311 64.3V89H520.671V65.744C520.671 62.4 519.835 59.8413 518.163 58.068C516.491 56.244 514.211 55.332 511.323 55.332C508.385 55.332 506.054 56.244 504.331 58.068C502.659 59.8413 501.823 62.4 501.823 65.744V89H491.183V46.896H501.823V52.14C503.242 50.316 505.041 48.8973 507.219 47.884C509.449 46.82 511.881 46.288 514.515 46.288ZM535.273 67.796C535.273 63.54 536.109 59.7653 537.781 56.472C539.504 53.1787 541.835 50.6453 544.773 48.872C547.712 47.0987 550.98 46.212 554.577 46.212C557.313 46.212 559.923 46.82 562.405 48.036C564.888 49.2013 566.864 50.772 568.333 52.748V32.76H579.125V89H568.333V82.768C567.016 84.8453 565.167 86.5173 562.785 87.784C560.404 89.0507 557.643 89.684 554.501 89.684C550.955 89.684 547.712 88.772 544.773 86.948C541.835 85.124 539.504 82.5653 537.781 79.272C536.109 75.928 535.273 72.1027 535.273 67.796ZM568.409 67.948C568.409 65.364 567.903 63.16 566.889 61.336C565.876 59.4613 564.508 58.0427 562.785 57.08C561.063 56.0667 559.213 55.56 557.237 55.56C555.261 55.56 553.437 56.0413 551.765 57.004C550.093 57.9667 548.725 59.3853 547.661 61.26C546.648 63.084 546.141 65.2627 546.141 67.796C546.141 70.3293 546.648 72.5587 547.661 74.484C548.725 76.3587 550.093 77.8027 551.765 78.816C553.488 79.8293 555.312 80.336 557.237 80.336C559.213 80.336 561.063 79.8547 562.785 78.892C564.508 77.8787 565.876 76.46 566.889 74.636C567.903 72.7613 568.409 70.532 568.409 67.948Z" fill="#0005B2"/>
<path d="M591.66 162.4C591.66 157.181 592.825 152.52 595.156 148.416C597.537 144.261 600.755 141.044 604.808 138.764C608.912 136.433 613.497 135.268 618.564 135.268C624.492 135.268 629.685 136.788 634.144 139.828C638.603 142.868 641.719 147.073 643.492 152.444H631.256C630.04 149.911 628.317 148.011 626.088 146.744C623.909 145.477 621.376 144.844 618.488 144.844C615.397 144.844 612.636 145.579 610.204 147.048C607.823 148.467 605.948 150.493 604.58 153.128C603.263 155.763 602.604 158.853 602.604 162.4C602.604 165.896 603.263 168.987 604.58 171.672C605.948 174.307 607.823 176.359 610.204 177.828C612.636 179.247 615.397 179.956 618.488 179.956C621.376 179.956 623.909 179.323 626.088 178.056C628.317 176.739 630.04 174.813 631.256 172.28H643.492C641.719 177.701 638.603 181.932 634.144 184.972C629.736 187.961 624.543 189.456 618.564 189.456C613.497 189.456 608.912 188.316 604.808 186.036C600.755 183.705 597.537 180.488 595.156 176.384C592.825 172.28 591.66 167.619 591.66 162.4ZM672.872 146.288C676.064 146.288 678.901 146.997 681.384 148.416C683.867 149.784 685.792 151.836 687.16 154.572C688.579 157.257 689.288 160.5 689.288 164.3V189H678.648V165.744C678.648 162.4 677.812 159.841 676.14 158.068C674.468 156.244 672.188 155.332 669.3 155.332C666.361 155.332 664.031 156.244 662.308 158.068C660.636 159.841 659.8 162.4 659.8 165.744V189H649.16V132.76H659.8V152.14C661.168 150.316 662.992 148.897 665.272 147.884C667.552 146.82 670.085 146.288 672.872 146.288ZM701.382 141.88C699.507 141.88 697.937 141.297 696.67 140.132C695.454 138.916 694.846 137.421 694.846 135.648C694.846 133.875 695.454 132.405 696.67 131.24C697.937 130.024 699.507 129.416 701.382 129.416C703.257 129.416 704.802 130.024 706.018 131.24C707.285 132.405 707.918 133.875 707.918 135.648C707.918 137.421 707.285 138.916 706.018 140.132C704.802 141.297 703.257 141.88 701.382 141.88ZM706.626 146.896V189H695.986V146.896H706.626ZM737.05 146.288C742.066 146.288 746.12 147.884 749.21 151.076C752.301 154.217 753.846 158.625 753.846 164.3V189H743.206V165.744C743.206 162.4 742.37 159.841 740.698 158.068C739.026 156.244 736.746 155.332 733.858 155.332C730.92 155.332 728.589 156.244 726.866 158.068C725.194 159.841 724.358 162.4 724.358 165.744V189H713.718V146.896H724.358V152.14C725.777 150.316 727.576 148.897 729.754 147.884C731.984 146.82 734.416 146.288 737.05 146.288ZM757.808 167.796C757.808 163.54 758.644 159.765 760.316 156.472C762.039 153.179 764.344 150.645 767.232 148.872C770.171 147.099 773.439 146.212 777.036 146.212C780.178 146.212 782.914 146.845 785.244 148.112C787.626 149.379 789.526 150.975 790.944 152.9V146.896H801.66V189H790.944V182.844C789.576 184.82 787.676 186.467 785.244 187.784C782.863 189.051 780.102 189.684 776.96 189.684C773.414 189.684 770.171 188.772 767.232 186.948C764.344 185.124 762.039 182.565 760.316 179.272C758.644 175.928 757.808 172.103 757.808 167.796ZM790.944 167.948C790.944 165.364 790.438 163.16 789.424 161.336C788.411 159.461 787.043 158.043 785.32 157.08C783.598 156.067 781.748 155.56 779.772 155.56C777.796 155.56 775.972 156.041 774.3 157.004C772.628 157.967 771.26 159.385 770.196 161.26C769.183 163.084 768.676 165.263 768.676 167.796C768.676 170.329 769.183 172.559 770.196 174.484C771.26 176.359 772.628 177.803 774.3 178.816C776.023 179.829 777.847 180.336 779.772 180.336C781.748 180.336 783.598 179.855 785.32 178.892C787.043 177.879 788.411 176.46 789.424 174.636C790.438 172.761 790.944 170.532 790.944 167.948Z" fill="#0005B2"/>
</svg>
