<svg width="65" height="65" viewBox="0 0 65 65" fill="none" xmlns="http://www.w3.org/2000/svg">
<circle cx="32.5" cy="32.5" r="32.5" fill="#0005B2"/>
<path fill-rule="evenodd" clip-rule="evenodd" d="M32.5 65C50.4493 65 65 50.4493 65 32.5C65 31.3681 64.9421 30.2497 64.8292 29.1476C62.0879 40.6174 49.5385 50.8635 33.0531 53.8656C22.9554 55.7044 13.2816 54.4793 5.7821 51.0093C11.6503 59.4641 21.4287 65 32.5 65ZM2.31055 44.5586C8.60918 46.2215 15.8492 46.5385 23.3213 45.1778C43.6368 41.4783 57.9749 26.7776 55.3463 12.3428C55.0854 10.9103 54.6672 9.53417 54.1057 8.22105C48.3631 3.10718 40.7944 0 32.5 0C14.5507 0 0 14.5507 0 32.5C0 36.7607 0.819907 40.83 2.31055 44.5586Z" fill="white"/>
</svg>
