<svg width="28" height="28" viewBox="0 0 28 28" fill="none" xmlns="http://www.w3.org/2000/svg">
<path d="M25.4545 8.90909C26.8604 8.90909 28 10.0487 28 11.4545V16.5455C28 17.9513 26.8604 19.0909 25.4545 19.0909H24.103C23.4767 24.1135 19.1922 28 14 28V25.4545C18.2174 25.4545 21.6364 22.0356 21.6364 17.8182V10.1818C21.6364 5.96437 18.2174 2.54545 14 2.54545C9.78255 2.54545 6.36364 5.96437 6.36364 10.1818V19.0909H2.54545C1.13964 19.0909 0 17.9513 0 16.5455V11.4545C0 10.0487 1.13964 8.90909 2.54545 8.90909H3.89695C4.52326 3.88651 8.80776 0 14 0C19.1922 0 23.4767 3.88651 24.103 8.90909H25.4545ZM8.60292 18.8171L9.95219 16.6583C11.1257 17.3933 12.5132 17.8182 14 17.8182C15.4868 17.8182 16.8743 17.3933 18.0478 16.6583L19.3971 18.8171C17.8324 19.7971 15.9824 20.3636 14 20.3636C12.0176 20.3636 10.1676 19.7971 8.60292 18.8171Z" fill="white"/>
</svg>
