<svg width="49" height="58" viewBox="0 0 49 58" fill="none" xmlns="http://www.w3.org/2000/svg">
<path d="M41.2055 40.5805L24.5 57.2857L7.7946 40.5805C-1.43154 31.3542 -1.43154 16.3957 7.7946 7.1696C17.0207 -2.05654 31.9792 -2.05654 41.2055 7.1696C50.4316 16.3957 50.4316 31.3542 41.2055 40.5805ZM24.5 34.375C30.2989 34.375 35 29.6739 35 23.875C35 18.076 30.2989 13.375 24.5 13.375C18.701 13.375 14 18.076 14 23.875C14 29.6739 18.701 34.375 24.5 34.375ZM24.5 29.125C21.6004 29.125 19.25 26.7746 19.25 23.875C19.25 20.9755 21.6004 18.625 24.5 18.625C27.3996 18.625 29.75 20.9755 29.75 23.875C29.75 26.7746 27.3996 29.125 24.5 29.125Z" fill="#0A41AB"/>
</svg>
