<svg width="19" height="20" viewBox="0 0 19 20" fill="none" xmlns="http://www.w3.org/2000/svg">
<path d="M17.2914 3.99994H18.0002C18.5525 3.99994 19.0002 4.44766 19.0002 4.99994V11.9999C19.0002 12.5522 18.5525 12.9999 18.0002 12.9999H16.0002L11.8319 7.16427C11.3345 6.46797 10.4493 6.16522 9.6297 6.41109L7.14444 7.15668C6.43971 7.3681 5.6758 7.17551 5.15553 6.65524L4.86277 6.36247C4.41655 5.91626 4.49011 5.17336 5.01517 4.82332L10.4162 1.22262C11.0752 0.783328 11.9312 0.774218 12.5994 1.1994L16.7546 3.8436C16.915 3.94571 17.1013 3.99994 17.2914 3.99994ZM3.02708 12.2947L1.41132 13.7085C0.93991 14.1209 0.95945 14.8603 1.45201 15.2474L6.59277 19.2865C7.07284 19.6637 7.77592 19.5264 8.0788 18.9963L8.7827 17.7645C9.2127 17.012 9.1091 16.0682 8.5261 15.4269L5.82397 12.4545C5.09091 11.6481 3.84722 11.5771 3.02708 12.2947ZM5.04557 3H1C0.44772 3 0 3.44772 0 4V11.5158C0 11.9242 0.12475 12.3173 0.35019 12.6464C0.3741 12.6238 0.39856 12.6015 0.42357 12.5796L2.03933 11.1658C3.47457 9.91 5.65103 10.0343 6.93388 11.4455L9.6361 14.4179C10.6563 15.5401 10.8376 17.1918 10.0851 18.5087L9.4308 19.6538C9.9937 19.8671 10.635 19.819 11.169 19.4986L15.5782 16.8531C16.0786 16.5528 16.2166 15.8896 15.8776 15.4146L10.6109 8.0361C10.4865 7.86205 10.2652 7.78636 10.0603 7.84783L7.57505 8.5934C6.34176 8.9634 5.00492 8.6264 4.09446 7.7159L3.80169 7.42313C2.68615 6.30759 2.87005 4.45035 4.18271 3.57524L5.04557 3Z" fill="white"/>
</svg>
